<svg width="294" height="270" viewBox="0 0 294 270" fill="none" xmlns="http://www.w3.org/2000/svg">
<g clip-path="url(#clip0)">
<path d="M178.56 112.865L175.288 106.971V99.7668L172.015 96.4922V87.9784L168.742 84.049V75.5352L159.579 72.9155V63.7468L148.452 59.1625V49.9938L137.325 45.4094V36.2407L125.543 31.6564V22.4877L116.38 17.9033V33.6211L120.307 36.8956L162.852 89.2882L175.942 113.52L177.251 120.2L178.56 119.414V112.865Z" fill="url(#paint0_linear)"/>
<path d="M137.325 36.2411L198.197 24.4528L187.724 18.5586L125.544 31.6567L137.325 36.2411Z" fill="url(#paint1_linear)"/>
<path d="M125.544 31.6563L187.724 18.5581V10.6992L125.544 22.4876V31.6563Z" fill="url(#paint2_linear)"/>
<path d="M251.214 123.998L178.561 119.414L177.252 120.2L172.016 123.344L238.778 131.857L251.214 123.998Z" fill="url(#paint3_linear)"/>
<path d="M187.724 10.6998L175.942 4.80566L116.38 17.9038L125.543 22.4882L187.724 10.6998Z" fill="url(#paint4_linear)"/>
<path d="M229.614 146.266L164.815 136.442V145.611L229.614 154.125V146.266Z" fill="url(#paint5_linear)"/>
<path d="M229.614 154.124L164.816 145.61L157.616 149.54L219.142 161.328L229.614 154.124Z" fill="url(#paint6_linear)"/>
<path d="M238.778 131.858L172.016 123.344V132.512L238.778 139.716V131.858Z" fill="url(#paint7_linear)"/>
<path d="M238.777 139.717L172.015 132.513L164.815 136.442L229.614 146.266L238.777 139.717Z" fill="url(#paint8_linear)"/>
<path d="M137.325 45.4102L198.196 32.312V24.4531L137.325 36.2415V45.4102Z" fill="url(#paint9_linear)"/>
<path d="M172.016 96.4926L246.632 89.2886V81.4297L172.016 87.9788V96.4926Z" fill="url(#paint10_linear)"/>
<path d="M219.142 161.329L157.616 149.541V158.709L219.142 169.188V161.329Z" fill="url(#paint11_linear)"/>
<path d="M168.743 84.0493L232.887 73.5708V65.7119L168.743 75.5355V84.0493Z" fill="url(#paint12_linear)"/>
<path d="M172.015 87.9783L246.632 81.4292L232.887 73.5703L168.743 84.0488L172.015 87.9783Z" fill="url(#paint13_linear)"/>
<path d="M175.288 99.7666L264.959 98.4568L246.632 89.2881L172.016 96.4921L175.288 99.7666Z" fill="url(#paint14_linear)"/>
<path d="M251.214 123.999V116.14L178.561 112.865V119.414L251.214 123.999Z" fill="url(#paint15_linear)"/>
<path d="M159.579 63.7479L219.141 51.9596L209.323 46.0654L148.452 59.1636L159.579 63.7479Z" fill="url(#paint16_linear)"/>
<path d="M148.452 49.994L209.323 38.2057L198.196 32.3115L137.325 45.4097L148.452 49.994Z" fill="url(#paint17_linear)"/>
<path d="M148.452 59.1641L209.323 46.0659V38.207L148.452 49.9954V59.1641Z" fill="url(#paint18_linear)"/>
<path d="M168.743 75.5361L232.886 65.7125L219.141 59.8184L159.579 72.9165L168.743 75.5361Z" fill="url(#paint19_linear)"/>
<path d="M159.579 72.916L219.141 59.8179V51.959L159.579 63.7473V72.916Z" fill="url(#paint20_linear)"/>
<path d="M191.651 202.588L145.834 181.631H134.707L158.27 202.588H191.651Z" fill="url(#paint21_linear)"/>
<path d="M48.3092 257.6L45.0365 235.333H26.0552L29.3278 257.6H48.3092Z" fill="url(#paint22_linear)"/>
<path d="M48.3093 247.122L45.0366 226.165V235.334L48.3093 257.601V247.122Z" fill="url(#paint23_linear)"/>
<path d="M88.2354 239.261L84.9628 216.995H64.6724L68.5995 239.261H88.2354Z" fill="url(#paint24_linear)"/>
<path d="M26.0552 235.333V246.466L29.3278 270.698V257.6L26.0552 235.333Z" fill="url(#paint25_linear)"/>
<path d="M68.5995 239.261L64.6724 216.995V226.163L68.5995 247.12V239.261Z" fill="url(#paint26_linear)"/>
<path d="M68.5997 247.122L64.6725 226.165H45.0366L48.3093 247.122H68.5997Z" fill="url(#paint27_linear)"/>
<path d="M175.288 99.7668V106.971L264.959 106.316V98.457L175.288 99.7668Z" fill="url(#paint28_linear)"/>
<path d="M158.271 202.588V211.757H131.435V220.925H109.181V230.094H88.2358V239.263H68.5999V247.122H48.3095V257.6H29.3281V270.698H49.6186L191.652 214.376V202.588H158.271Z" fill="url(#paint29_linear)"/>
<path d="M178.561 112.866L251.214 116.141L264.959 106.317L175.288 106.972L178.561 112.866Z" fill="url(#paint30_linear)"/>
<path d="M251.214 124L238.778 131.859V139.718L229.614 146.267V154.126L219.142 161.33V169.188C215.433 171.589 207.884 176.392 207.36 176.392V184.251L191.651 194.075V202.589V214.377L264.959 120.725V106.317L251.214 116.141V124Z" fill="url(#paint31_linear)"/>
<path d="M219.141 169.187L157.616 158.708L151.07 161.328L207.36 176.391C207.883 176.391 215.433 171.588 219.141 169.187Z" fill="url(#paint32_linear)"/>
<path d="M158.27 202.588L134.707 181.631V190.8L158.27 211.757V202.588Z" fill="url(#paint33_linear)"/>
<path d="M191.651 194.074L145.834 172.462V181.631L191.651 202.588V194.074Z" fill="url(#paint34_linear)"/>
<path d="M158.27 211.757L134.707 190.8H121.617L131.435 211.757H158.27Z" fill="url(#paint35_linear)"/>
<path d="M207.36 176.391L151.07 161.328V169.842L207.36 184.25V176.391Z" fill="url(#paint36_linear)"/>
<path d="M207.36 184.251L151.07 169.843L145.834 172.462L191.651 194.074L207.36 184.251Z" fill="url(#paint37_linear)"/>
<path d="M131.435 220.925L121.617 199.968H105.253L109.181 220.925H131.435Z" fill="url(#paint38_linear)"/>
<path d="M109.181 220.925L105.253 199.968V208.482L109.181 230.093V220.925Z" fill="url(#paint39_linear)"/>
<path d="M131.435 211.757L121.617 190.8V199.969L131.435 220.926V211.757Z" fill="url(#paint40_linear)"/>
<path d="M109.18 230.094L105.253 208.482H84.9629L88.2355 230.094H109.18Z" fill="url(#paint41_linear)"/>
<path d="M88.2355 230.094L84.9629 208.482V216.996L88.2355 239.263V230.094Z" fill="url(#paint42_linear)"/>
<path d="M130.763 18.1434L192.944 6.3551M130.763 18.1434V27.3121M130.763 18.1434L121.6 13.5591M192.944 6.3551V14.214M192.944 6.3551L181.162 0.460938L121.6 13.5591M192.944 14.214L130.763 27.3121M192.944 14.214L203.416 20.1082M130.763 27.3121L142.545 31.8965M142.545 31.8965L203.416 20.1082M142.545 31.8965V41.0652M203.416 20.1082V27.9671M203.416 27.9671L142.545 41.0652M203.416 27.9671L214.543 33.8612M142.545 41.0652L153.672 45.6496M153.672 45.6496L214.543 33.8612M153.672 45.6496V54.8183M214.543 33.8612V41.7201M214.543 41.7201L153.672 54.8183M214.543 41.7201L224.361 47.6143M153.672 54.8183L164.799 59.4026M164.799 59.4026L224.361 47.6143M164.799 59.4026V68.5713M224.361 47.6143V55.4732M224.361 55.4732L164.799 68.5713M224.361 55.4732L238.106 61.3673M164.799 68.5713L173.962 71.1909M173.962 71.1909L238.106 61.3673M173.962 71.1909V79.7047M238.106 61.3673V69.2262M238.106 69.2262L173.962 79.7047M238.106 69.2262L251.852 77.0851M173.962 79.7047L177.235 83.6342M177.235 83.6342L251.852 77.0851M177.235 83.6342V92.148M251.852 77.0851V84.944M251.852 84.944L177.235 92.148M251.852 84.944L270.178 94.1127M177.235 92.148L180.508 95.4225M180.508 95.4225L270.178 94.1127M180.508 95.4225V102.627M270.178 94.1127V101.972M270.178 101.972L180.508 102.627M270.178 101.972L256.433 111.795M270.178 101.972V116.38L196.871 210.031M180.508 102.627L183.78 108.521M183.78 108.521L256.433 111.795M183.78 108.521V115.07M256.433 111.795V119.654M256.433 119.654L183.78 115.07M256.433 119.654L243.997 127.513M183.78 115.07L182.471 115.856M177.235 118.999L243.997 127.513M177.235 118.999V128.168M177.235 118.999L182.471 115.856M243.997 127.513V135.372M243.997 135.372L177.235 128.168M243.997 135.372L234.834 141.921M177.235 128.168L170.035 132.097M170.035 132.097L234.834 141.921M170.035 132.097V141.266M234.834 141.921V149.78M234.834 149.78L170.035 141.266M234.834 149.78L224.361 156.984M170.035 141.266L162.835 145.195M162.835 145.195L224.361 156.984M162.835 145.195V154.364M224.361 156.984V164.843M224.361 164.843L162.835 154.364M224.361 164.843C220.652 167.244 213.103 172.047 212.58 172.047M162.835 154.364L156.29 156.984M156.29 156.984L212.58 172.047M156.29 156.984V165.498M212.58 172.047V179.906M212.58 179.906L156.29 165.498M212.58 179.906L196.871 189.729M156.29 165.498L151.054 168.117M151.054 168.117L196.871 189.729M151.054 168.117V177.286M196.871 189.729V198.243M196.871 198.243L151.054 177.286M196.871 198.243H163.49M196.871 198.243V210.031M151.054 177.286H139.927M139.927 177.286L163.49 198.243M139.927 177.286V186.455M163.49 198.243V207.412M163.49 207.412L139.927 186.455M163.49 207.412H136.654M139.927 186.455H126.836M126.836 186.455L136.654 207.412M126.836 186.455V195.623M136.654 207.412V216.58M136.654 216.58L126.836 195.623M136.654 216.58H114.4M126.836 195.623H110.473M110.473 195.623L114.4 216.58M110.473 195.623V204.137M114.4 216.58V225.749M114.4 225.749L110.473 204.137M114.4 225.749H93.4553M110.473 204.137H90.1826M90.1826 204.137L93.4553 225.749M90.1826 204.137V212.651M93.4553 225.749V234.918M93.4553 234.918L90.1826 212.651M93.4553 234.918H73.8194M90.1826 212.651H69.8922M69.8922 212.651L73.8194 234.918M69.8922 212.651V221.82M73.8194 234.918V242.777M73.8194 242.777L69.8922 221.82M73.8194 242.777H53.5289M69.8922 221.82H50.2563M50.2563 221.82L53.5289 242.777M50.2563 221.82V230.988M53.5289 242.777V253.255M53.5289 253.255L50.2563 230.988M53.5289 253.255H34.5476M50.2563 230.988H31.2749M31.2749 230.988L34.5476 253.255M31.2749 230.988V242.122L34.5476 266.353M34.5476 253.255V266.353M34.5476 266.353H54.838L196.871 210.031M121.6 13.5591V29.2769L125.527 32.5514L168.072 84.944L181.162 109.176L182.471 115.856" stroke="#202020" stroke-width="1.5"/>
</g>
<defs>
<linearGradient id="paint0_linear" x1="178.56" y1="69.052" x2="116.381" y2="69.052" gradientUnits="userSpaceOnUse">
<stop stop-color="#F4C09F"/>
<stop offset="0.1777" stop-color="#F3C7AB"/>
<stop offset="0.5163" stop-color="#F0CEB8"/>
<stop offset="0.8024" stop-color="#F4DCCE"/>
<stop offset="1" stop-color="#F9E5DA"/>
</linearGradient>
<linearGradient id="paint1_linear" x1="198.197" y1="27.3998" x2="125.545" y2="27.3998" gradientUnits="userSpaceOnUse">
<stop stop-color="#F4C09F"/>
<stop offset="0.1777" stop-color="#F3C7AB"/>
<stop offset="0.5163" stop-color="#F0CEB8"/>
<stop offset="0.8024" stop-color="#F4DCCE"/>
<stop offset="1" stop-color="#F9E5DA"/>
</linearGradient>
<linearGradient id="paint2_linear" x1="157.143" y1="73.4264" x2="156.536" y2="11.2152" gradientUnits="userSpaceOnUse">
<stop stop-color="#F4C09F"/>
<stop offset="0.1777" stop-color="#F3C7AB"/>
<stop offset="0.5163" stop-color="#F0CEB8"/>
<stop offset="0.8024" stop-color="#F4DCCE"/>
<stop offset="1" stop-color="#F9E5DA"/>
</linearGradient>
<linearGradient id="paint3_linear" x1="251.214" y1="125.636" x2="172.016" y2="125.636" gradientUnits="userSpaceOnUse">
<stop stop-color="#F4C09F"/>
<stop offset="0.1777" stop-color="#F3C7AB"/>
<stop offset="0.5163" stop-color="#F0CEB8"/>
<stop offset="0.8024" stop-color="#F4DCCE"/>
<stop offset="1" stop-color="#F9E5DA"/>
</linearGradient>
<linearGradient id="paint4_linear" x1="187.724" y1="13.6469" x2="116.381" y2="13.6469" gradientUnits="userSpaceOnUse">
<stop stop-color="#F4C09F"/>
<stop offset="0.1777" stop-color="#F3C7AB"/>
<stop offset="0.5163" stop-color="#F0CEB8"/>
<stop offset="0.8024" stop-color="#F4DCCE"/>
<stop offset="1" stop-color="#F9E5DA"/>
</linearGradient>
<linearGradient id="paint5_linear" x1="197.215" y1="204.663" x2="197.215" y2="139.827" gradientUnits="userSpaceOnUse">
<stop stop-color="#F4C09F"/>
<stop offset="0.1777" stop-color="#F3C7AB"/>
<stop offset="0.5163" stop-color="#F0CEB8"/>
<stop offset="0.8024" stop-color="#F4DCCE"/>
<stop offset="1" stop-color="#F9E5DA"/>
</linearGradient>
<linearGradient id="paint6_linear" x1="229.614" y1="153.469" x2="157.616" y2="153.469" gradientUnits="userSpaceOnUse">
<stop stop-color="#F4C09F"/>
<stop offset="0.1777" stop-color="#F3C7AB"/>
<stop offset="0.5163" stop-color="#F0CEB8"/>
<stop offset="0.8024" stop-color="#F4DCCE"/>
<stop offset="1" stop-color="#F9E5DA"/>
</linearGradient>
<linearGradient id="paint7_linear" x1="205.397" y1="192.218" x2="205.397" y2="125.417" gradientUnits="userSpaceOnUse">
<stop stop-color="#F4C09F"/>
<stop offset="0.1777" stop-color="#F3C7AB"/>
<stop offset="0.5163" stop-color="#F0CEB8"/>
<stop offset="0.8024" stop-color="#F4DCCE"/>
<stop offset="1" stop-color="#F9E5DA"/>
</linearGradient>
<linearGradient id="paint8_linear" x1="238.777" y1="139.389" x2="164.815" y2="139.389" gradientUnits="userSpaceOnUse">
<stop stop-color="#F4C09F"/>
<stop offset="0.1777" stop-color="#F3C7AB"/>
<stop offset="0.5163" stop-color="#F0CEB8"/>
<stop offset="0.8024" stop-color="#F4DCCE"/>
<stop offset="1" stop-color="#F9E5DA"/>
</linearGradient>
<linearGradient id="paint9_linear" x1="167.761" y1="90.8175" x2="167.761" y2="29.9111" gradientUnits="userSpaceOnUse">
<stop stop-color="#F4C09F"/>
<stop offset="0.1777" stop-color="#F3C7AB"/>
<stop offset="0.5163" stop-color="#F0CEB8"/>
<stop offset="0.8024" stop-color="#F4DCCE"/>
<stop offset="1" stop-color="#F9E5DA"/>
</linearGradient>
<linearGradient id="paint10_linear" x1="209.324" y1="159.691" x2="209.324" y2="85.0317" gradientUnits="userSpaceOnUse">
<stop stop-color="#F4C09F"/>
<stop offset="0.1777" stop-color="#F3C7AB"/>
<stop offset="0.5163" stop-color="#F0CEB8"/>
<stop offset="0.8024" stop-color="#F4DCCE"/>
<stop offset="1" stop-color="#F9E5DA"/>
</linearGradient>
<linearGradient id="paint11_linear" x1="188.379" y1="213.067" x2="188.379" y2="151.505" gradientUnits="userSpaceOnUse">
<stop stop-color="#F4C09F"/>
<stop offset="0.1777" stop-color="#F3C7AB"/>
<stop offset="0.5163" stop-color="#F0CEB8"/>
<stop offset="0.8024" stop-color="#F4DCCE"/>
<stop offset="1" stop-color="#F9E5DA"/>
</linearGradient>
<linearGradient id="paint12_linear" x1="200.815" y1="132.949" x2="200.815" y2="68.7684" gradientUnits="userSpaceOnUse">
<stop stop-color="#F4C09F"/>
<stop offset="0.1777" stop-color="#F3C7AB"/>
<stop offset="0.5163" stop-color="#F0CEB8"/>
<stop offset="0.8024" stop-color="#F4DCCE"/>
<stop offset="1" stop-color="#F9E5DA"/>
</linearGradient>
<linearGradient id="paint13_linear" x1="246.632" y1="80.7743" x2="168.743" y2="80.7743" gradientUnits="userSpaceOnUse">
<stop stop-color="#F4C09F"/>
<stop offset="0.1777" stop-color="#F3C7AB"/>
<stop offset="0.5163" stop-color="#F0CEB8"/>
<stop offset="0.8024" stop-color="#F4DCCE"/>
<stop offset="1" stop-color="#F9E5DA"/>
</linearGradient>
<linearGradient id="paint14_linear" x1="264.959" y1="94.5273" x2="172.016" y2="94.5273" gradientUnits="userSpaceOnUse">
<stop stop-color="#F4C09F"/>
<stop offset="0.1777" stop-color="#F3C7AB"/>
<stop offset="0.5163" stop-color="#F0CEB8"/>
<stop offset="0.8024" stop-color="#F4DCCE"/>
<stop offset="1" stop-color="#F9E5DA"/>
</linearGradient>
<linearGradient id="paint15_linear" x1="214.887" y1="186.105" x2="214.887" y2="113.41" gradientUnits="userSpaceOnUse">
<stop stop-color="#F4C09F"/>
<stop offset="0.1777" stop-color="#F3C7AB"/>
<stop offset="0.5163" stop-color="#F0CEB8"/>
<stop offset="0.8024" stop-color="#F4DCCE"/>
<stop offset="1" stop-color="#F9E5DA"/>
</linearGradient>
<linearGradient id="paint16_linear" x1="219.141" y1="54.9067" x2="148.452" y2="54.9067" gradientUnits="userSpaceOnUse">
<stop stop-color="#F4C09F"/>
<stop offset="0.1777" stop-color="#F3C7AB"/>
<stop offset="0.5163" stop-color="#F0CEB8"/>
<stop offset="0.8024" stop-color="#F4DCCE"/>
<stop offset="1" stop-color="#F9E5DA"/>
</linearGradient>
<linearGradient id="paint17_linear" x1="209.323" y1="41.1528" x2="137.326" y2="41.1528" gradientUnits="userSpaceOnUse">
<stop stop-color="#F4C09F"/>
<stop offset="0.1777" stop-color="#F3C7AB"/>
<stop offset="0.5163" stop-color="#F0CEB8"/>
<stop offset="0.8024" stop-color="#F4DCCE"/>
<stop offset="1" stop-color="#F9E5DA"/>
</linearGradient>
<linearGradient id="paint18_linear" x1="178.888" y1="102.388" x2="178.888" y2="41.4816" gradientUnits="userSpaceOnUse">
<stop stop-color="#F4C09F"/>
<stop offset="0.1777" stop-color="#F3C7AB"/>
<stop offset="0.5163" stop-color="#F0CEB8"/>
<stop offset="0.8024" stop-color="#F4DCCE"/>
<stop offset="1" stop-color="#F9E5DA"/>
</linearGradient>
<linearGradient id="paint19_linear" x1="232.886" y1="67.6772" x2="159.579" y2="67.6772" gradientUnits="userSpaceOnUse">
<stop stop-color="#F4C09F"/>
<stop offset="0.1777" stop-color="#F3C7AB"/>
<stop offset="0.5163" stop-color="#F0CEB8"/>
<stop offset="0.8024" stop-color="#F4DCCE"/>
<stop offset="1" stop-color="#F9E5DA"/>
</linearGradient>
<linearGradient id="paint20_linear" x1="189.36" y1="118.323" x2="189.36" y2="58.7261" gradientUnits="userSpaceOnUse">
<stop stop-color="#F4C09F"/>
<stop offset="0.1777" stop-color="#F3C7AB"/>
<stop offset="0.5163" stop-color="#F0CEB8"/>
<stop offset="0.8024" stop-color="#F4DCCE"/>
<stop offset="1" stop-color="#F9E5DA"/>
</linearGradient>
<linearGradient id="paint21_linear" x1="191.651" y1="192.11" x2="134.708" y2="192.11" gradientUnits="userSpaceOnUse">
<stop stop-color="#F4C09F"/>
<stop offset="0.1777" stop-color="#F3C7AB"/>
<stop offset="0.5163" stop-color="#F0CEB8"/>
<stop offset="0.8024" stop-color="#F4DCCE"/>
<stop offset="1" stop-color="#F9E5DA"/>
</linearGradient>
<linearGradient id="paint22_linear" x1="48.3092" y1="246.466" x2="26.0552" y2="246.466" gradientUnits="userSpaceOnUse">
<stop stop-color="#F4C09F"/>
<stop offset="0.1777" stop-color="#F3C7AB"/>
<stop offset="0.5163" stop-color="#F0CEB8"/>
<stop offset="0.8024" stop-color="#F4DCCE"/>
<stop offset="1" stop-color="#F9E5DA"/>
</linearGradient>
<linearGradient id="paint23_linear" x1="46.6729" y1="267.752" x2="46.6729" y2="241.751" gradientUnits="userSpaceOnUse">
<stop stop-color="#F4C09F"/>
<stop offset="0.1777" stop-color="#F3C7AB"/>
<stop offset="0.5163" stop-color="#F0CEB8"/>
<stop offset="0.8024" stop-color="#F4DCCE"/>
<stop offset="1" stop-color="#F9E5DA"/>
</linearGradient>
<linearGradient id="paint24_linear" x1="88.2354" y1="228.128" x2="64.6724" y2="228.128" gradientUnits="userSpaceOnUse">
<stop stop-color="#F4C09F"/>
<stop offset="0.1777" stop-color="#F3C7AB"/>
<stop offset="0.5163" stop-color="#F0CEB8"/>
<stop offset="0.8024" stop-color="#F4DCCE"/>
<stop offset="1" stop-color="#F9E5DA"/>
</linearGradient>
<linearGradient id="paint25_linear" x1="27.6915" y1="278.557" x2="27.6915" y2="251.486" gradientUnits="userSpaceOnUse">
<stop stop-color="#F4C09F"/>
<stop offset="0.1777" stop-color="#F3C7AB"/>
<stop offset="0.5163" stop-color="#F0CEB8"/>
<stop offset="0.8024" stop-color="#F4DCCE"/>
<stop offset="1" stop-color="#F9E5DA"/>
</linearGradient>
<linearGradient id="paint26_linear" x1="66.6359" y1="259.345" x2="66.6359" y2="232.481" gradientUnits="userSpaceOnUse">
<stop stop-color="#F4C09F"/>
<stop offset="0.1777" stop-color="#F3C7AB"/>
<stop offset="0.5163" stop-color="#F0CEB8"/>
<stop offset="0.8024" stop-color="#F4DCCE"/>
<stop offset="1" stop-color="#F9E5DA"/>
</linearGradient>
<linearGradient id="paint27_linear" x1="68.5997" y1="236.644" x2="45.0366" y2="236.644" gradientUnits="userSpaceOnUse">
<stop stop-color="#F4C09F"/>
<stop offset="0.1777" stop-color="#F3C7AB"/>
<stop offset="0.5163" stop-color="#F0CEB8"/>
<stop offset="0.8024" stop-color="#F4DCCE"/>
<stop offset="1" stop-color="#F9E5DA"/>
</linearGradient>
<linearGradient id="paint28_linear" x1="220.123" y1="188.726" x2="220.123" y2="99.0032" gradientUnits="userSpaceOnUse">
<stop stop-color="#F4C09F"/>
<stop offset="0.1777" stop-color="#F3C7AB"/>
<stop offset="0.5163" stop-color="#F0CEB8"/>
<stop offset="0.8024" stop-color="#F4DCCE"/>
<stop offset="1" stop-color="#F9E5DA"/>
</linearGradient>
<linearGradient id="paint29_linear" x1="191.652" y1="236.643" x2="29.3288" y2="236.643" gradientUnits="userSpaceOnUse">
<stop stop-color="#F4C09F"/>
<stop offset="0.1777" stop-color="#F3C7AB"/>
<stop offset="0.5163" stop-color="#F0CEB8"/>
<stop offset="0.8024" stop-color="#F4DCCE"/>
<stop offset="1" stop-color="#F9E5DA"/>
</linearGradient>
<linearGradient id="paint30_linear" x1="264.959" y1="111.229" x2="175.288" y2="111.229" gradientUnits="userSpaceOnUse">
<stop stop-color="#F4C09F"/>
<stop offset="0.1777" stop-color="#F3C7AB"/>
<stop offset="0.5163" stop-color="#F0CEB8"/>
<stop offset="0.8024" stop-color="#F4DCCE"/>
<stop offset="1" stop-color="#F9E5DA"/>
</linearGradient>
<linearGradient id="paint31_linear" x1="264.959" y1="160.347" x2="191.651" y2="160.347" gradientUnits="userSpaceOnUse">
<stop stop-color="#F4C09F"/>
<stop offset="0.1777" stop-color="#F3C7AB"/>
<stop offset="0.5163" stop-color="#F0CEB8"/>
<stop offset="0.8024" stop-color="#F4DCCE"/>
<stop offset="1" stop-color="#F9E5DA"/>
</linearGradient>
<linearGradient id="paint32_linear" x1="219.141" y1="167.55" x2="151.07" y2="167.55" gradientUnits="userSpaceOnUse">
<stop stop-color="#F4C09F"/>
<stop offset="0.1777" stop-color="#F3C7AB"/>
<stop offset="0.5163" stop-color="#F0CEB8"/>
<stop offset="0.8024" stop-color="#F4DCCE"/>
<stop offset="1" stop-color="#F9E5DA"/>
</linearGradient>
<linearGradient id="paint33_linear" x1="146.489" y1="240.356" x2="146.489" y2="187.254" gradientUnits="userSpaceOnUse">
<stop stop-color="#F4C09F"/>
<stop offset="0.1777" stop-color="#F3C7AB"/>
<stop offset="0.5163" stop-color="#F0CEB8"/>
<stop offset="0.8024" stop-color="#F4DCCE"/>
<stop offset="1" stop-color="#F9E5DA"/>
</linearGradient>
<linearGradient id="paint34_linear" x1="168.743" y1="226.382" x2="168.743" y2="180.538" gradientUnits="userSpaceOnUse">
<stop stop-color="#F4C09F"/>
<stop offset="0.1777" stop-color="#F3C7AB"/>
<stop offset="0.5163" stop-color="#F0CEB8"/>
<stop offset="0.8024" stop-color="#F4DCCE"/>
<stop offset="1" stop-color="#F9E5DA"/>
</linearGradient>
<linearGradient id="paint35_linear" x1="158.27" y1="201.278" x2="121.617" y2="201.278" gradientUnits="userSpaceOnUse">
<stop stop-color="#F4C09F"/>
<stop offset="0.1777" stop-color="#F3C7AB"/>
<stop offset="0.5163" stop-color="#F0CEB8"/>
<stop offset="0.8024" stop-color="#F4DCCE"/>
<stop offset="1" stop-color="#F9E5DA"/>
</linearGradient>
<linearGradient id="paint36_linear" x1="179.215" y1="222.126" x2="179.215" y2="165.804" gradientUnits="userSpaceOnUse">
<stop stop-color="#F4C09F"/>
<stop offset="0.1777" stop-color="#F3C7AB"/>
<stop offset="0.5163" stop-color="#F0CEB8"/>
<stop offset="0.8024" stop-color="#F4DCCE"/>
<stop offset="1" stop-color="#F9E5DA"/>
</linearGradient>
<linearGradient id="paint37_linear" x1="207.36" y1="181.959" x2="145.835" y2="181.959" gradientUnits="userSpaceOnUse">
<stop stop-color="#F4C09F"/>
<stop offset="0.1777" stop-color="#F3C7AB"/>
<stop offset="0.5163" stop-color="#F0CEB8"/>
<stop offset="0.8024" stop-color="#F4DCCE"/>
<stop offset="1" stop-color="#F9E5DA"/>
</linearGradient>
<linearGradient id="paint38_linear" x1="131.435" y1="210.446" x2="105.253" y2="210.446" gradientUnits="userSpaceOnUse">
<stop stop-color="#F4C09F"/>
<stop offset="0.1777" stop-color="#F3C7AB"/>
<stop offset="0.5163" stop-color="#F0CEB8"/>
<stop offset="0.8024" stop-color="#F4DCCE"/>
<stop offset="1" stop-color="#F9E5DA"/>
</linearGradient>
<linearGradient id="paint39_linear" x1="107.217" y1="235.004" x2="107.217" y2="212.235" gradientUnits="userSpaceOnUse">
<stop stop-color="#F4C09F"/>
<stop offset="0.1777" stop-color="#F3C7AB"/>
<stop offset="0.5163" stop-color="#F0CEB8"/>
<stop offset="0.8024" stop-color="#F4DCCE"/>
<stop offset="1" stop-color="#F9E5DA"/>
</linearGradient>
<linearGradient id="paint40_linear" x1="126.526" y1="240.79" x2="126.526" y2="201.448" gradientUnits="userSpaceOnUse">
<stop stop-color="#F4C09F"/>
<stop offset="0.1777" stop-color="#F3C7AB"/>
<stop offset="0.5163" stop-color="#F0CEB8"/>
<stop offset="0.8024" stop-color="#F4DCCE"/>
<stop offset="1" stop-color="#F9E5DA"/>
</linearGradient>
<linearGradient id="paint41_linear" x1="109.18" y1="219.288" x2="84.9629" y2="219.288" gradientUnits="userSpaceOnUse">
<stop stop-color="#F4C09F"/>
<stop offset="0.1777" stop-color="#F3C7AB"/>
<stop offset="0.5163" stop-color="#F0CEB8"/>
<stop offset="0.8024" stop-color="#F4DCCE"/>
<stop offset="1" stop-color="#F9E5DA"/>
</linearGradient>
<linearGradient id="paint42_linear" x1="86.5992" y1="251.706" x2="86.5992" y2="218.957" gradientUnits="userSpaceOnUse">
<stop stop-color="#F4C09F"/>
<stop offset="0.1777" stop-color="#F3C7AB"/>
<stop offset="0.5163" stop-color="#F0CEB8"/>
<stop offset="0.8024" stop-color="#F4DCCE"/>
<stop offset="1" stop-color="#F9E5DA"/>
</linearGradient>
<clipPath id="clip0">
<rect width="294" height="270" fill="white"/>
</clipPath>
</defs>
</svg>
