<svg width="294" height="270" viewBox="0 0 294 270" fill="none" xmlns="http://www.w3.org/2000/svg">
<g clip-path="url(#clip0)">
<path d="M95.4884 110.397L188.741 93.3645L173.199 85.2188L79.9463 102.991L95.4884 110.397Z" fill="url(#paint0_linear)"/>
<path d="M79.9463 102.992L173.199 85.2195V73.3711L79.9463 90.4032V102.992Z" fill="url(#paint1_linear)"/>
<path d="M95.4888 122.986L188.741 105.214V93.3652L95.4888 110.397V122.986Z" fill="url(#paint2_linear)"/>
<path d="M108.07 128.911L201.323 111.879L188.741 105.214L95.4888 122.987L108.07 128.911Z" fill="url(#paint3_linear)"/>
<path d="M79.9463 90.4028L173.199 73.3707L159.877 64.4844L66.6245 82.257L79.9463 90.4028Z" fill="url(#paint4_linear)"/>
<path d="M66.6245 82.2578L159.877 64.4851V52.6367L66.6245 69.6688V82.2578Z" fill="url(#paint5_linear)"/>
<path d="M116.951 173.34L253.129 176.303V161.492L116.951 160.751V173.34Z" fill="url(#paint6_linear)"/>
<path d="M114.731 176.302L236.847 191.113L271.632 183.707L253.13 176.302L116.951 173.34L114.731 176.302Z" fill="url(#paint7_linear)"/>
<path d="M66.6246 69.6688L159.877 52.6367L144.335 45.2314L51.0825 63.0041L66.6246 69.6688Z" fill="url(#paint8_linear)"/>
<path d="M114.731 158.531L223.526 147.423V135.576L114.731 145.942V158.531Z" fill="url(#paint9_linear)"/>
<path d="M108.07 141.498L201.323 123.727V111.879L108.07 128.911V141.498Z" fill="url(#paint10_linear)"/>
<path d="M114.731 145.941L223.526 135.575L201.323 123.727L108.07 141.498L114.731 145.941Z" fill="url(#paint11_linear)"/>
<path d="M116.951 160.752L253.13 161.493L223.526 147.423L114.731 158.531L116.951 160.752Z" fill="url(#paint12_linear)"/>
<path d="M153.956 245.171L96.2284 217.772L74.0254 221.475L131.753 251.096L153.956 245.171Z" fill="url(#paint13_linear)"/>
<path d="M153.956 233.323L96.2285 204.443V217.772L153.956 245.172V233.323Z" fill="url(#paint14_linear)"/>
<path d="M192.441 224.437L106.59 202.962L96.2285 204.443L153.956 233.323L192.441 224.437Z" fill="url(#paint15_linear)"/>
<path d="M236.848 191.113V202.962L192.442 212.589V224.437L153.956 233.323V245.172L131.753 251.096V271.09L154.696 264.425L241.288 217.772L271.632 206.664V183.708L236.848 191.113Z" fill="url(#paint16_linear)"/>
<path d="M192.441 212.589L106.59 190.373V202.962L192.441 224.437V212.589Z" fill="url(#paint17_linear)"/>
<path d="M74.0254 221.475V241.469L131.753 271.09V251.096L74.0254 221.475Z" fill="url(#paint18_linear)"/>
<path d="M130.273 13.3884L114.731 6.72363L22.2188 23.0152L37.0207 30.4205L130.273 13.3884Z" fill="url(#paint19_linear)"/>
<path d="M37.0205 43.0097L130.273 25.2371V13.3887L37.0205 30.4208V43.0097Z" fill="url(#paint20_linear)"/>
<path d="M51.0824 50.4142L144.335 33.3821L130.273 25.2363L37.0205 43.009L51.0824 50.4142Z" fill="url(#paint21_linear)"/>
<path d="M51.0825 63.0039L144.335 45.2312V33.3828L51.0825 50.4149V63.0039Z" fill="url(#paint22_linear)"/>
<path d="M236.847 191.114L114.731 176.303V182.598V188.892L236.847 202.962V191.114Z" fill="url(#paint23_linear)"/>
<path d="M236.847 202.962L114.731 188.892L106.59 190.373L192.441 212.589L236.847 202.962Z" fill="url(#paint24_linear)"/>
<path d="M116.951 173.341V160.752L114.731 158.53V145.941L108.07 141.498V128.911L95.4886 122.987V110.398L79.9465 102.992V90.4035L66.6247 82.2577V69.6688L51.0826 63.004V50.4151L37.0207 43.0098V30.4209L22.2188 23.0156V46.7125L28.8796 51.8961L102.149 149.644L114.731 182.598V176.303L116.951 173.341Z" fill="url(#paint25_linear)"/>
<path d="M71.05 64.6537L164.303 47.6216M71.05 64.6537V77.2427M71.05 64.6537L55.5079 57.989M164.303 47.6216V59.47M164.303 47.6216L148.76 40.2163M164.303 59.47L71.05 77.2427M164.303 59.47L177.624 68.3563M71.05 77.2427L84.3718 85.3884M55.5079 45.4L148.76 28.3679M55.5079 45.4V57.989M55.5079 45.4L41.446 37.9948M148.76 28.3679V40.2163M148.76 28.3679L134.699 20.2221M148.76 40.2163L55.5079 57.989M41.446 25.4058L134.699 8.37372M41.446 25.4058V37.9948M41.446 25.4058L26.644 18.0006M134.699 8.37372V20.2221M134.699 8.37372L119.156 1.70898L26.644 18.0006M134.699 20.2221L41.446 37.9948M84.3718 85.3884L177.624 68.3563M84.3718 85.3884V97.9774M177.624 68.3563V80.2048M177.624 80.2048L84.3718 97.9774M177.624 80.2048L193.166 88.3505M84.3718 97.9774L99.9139 105.383M99.9139 105.383L193.166 88.3505M99.9139 105.383V117.972M193.166 88.3505V100.199M193.166 100.199L99.9139 117.972M193.166 100.199L205.748 106.864M99.9139 117.972L112.496 123.896M112.496 123.896L205.748 106.864M112.496 123.896V136.485M205.748 106.864V118.712M205.748 118.712L112.496 136.485M205.748 118.712L227.951 130.561M112.496 136.485L119.156 140.928M119.156 140.928L227.951 130.561M119.156 140.928V153.517M227.951 130.561V142.409M227.951 142.409L119.156 153.517M227.951 142.409L257.555 156.479M119.156 153.517L121.377 155.738M121.377 155.738L257.555 156.479M121.377 155.738V168.327M257.555 156.479V171.289M257.555 171.289L121.377 168.327M257.555 171.289L276.058 178.695M121.377 168.327L119.156 171.289M119.156 171.289L241.273 186.1M119.156 171.289V177.584M241.273 186.1V197.948M241.273 186.1L276.058 178.695M241.273 197.948L119.156 183.878M241.273 197.948L196.867 207.575M119.156 183.878L111.015 185.359M119.156 183.878V177.584M111.015 185.359L196.867 207.575M111.015 185.359V197.948M196.867 207.575V219.424M196.867 219.424L111.015 197.948M196.867 219.424L158.382 228.31M111.015 197.948L100.654 199.429M100.654 199.429L158.382 228.31M100.654 199.429V212.759M158.382 228.31V240.158M158.382 240.158L100.654 212.759M158.382 240.158L136.179 246.083M100.654 212.759L78.451 216.462M78.451 216.462L136.179 246.083M78.451 216.462V236.456L136.179 266.077M136.179 246.083V266.077M136.179 266.077L159.122 259.412L245.713 212.759L276.058 201.651V178.695M26.644 18.0006V41.6974L33.3049 46.8811L106.575 144.631L119.156 177.584" stroke="#202020" stroke-width="1.5"/>
</g>
<defs>
<linearGradient id="paint0_linear" x1="79.9463" y1="97.8071" x2="188.741" y2="97.8071" gradientUnits="userSpaceOnUse">
<stop stop-color="#F4C09F"/>
<stop offset="0.2354" stop-color="#F3C7AB"/>
<stop offset="0.543" stop-color="#F0CEB8"/>
<stop offset="0.8086" stop-color="#F4DCCE"/>
<stop offset="1" stop-color="#F9E5DA"/>
</linearGradient>
<linearGradient id="paint1_linear" x1="79.9463" y1="88.181" x2="173.199" y2="88.181" gradientUnits="userSpaceOnUse">
<stop stop-color="#F4C09F"/>
<stop offset="0.2354" stop-color="#F3C7AB"/>
<stop offset="0.543" stop-color="#F0CEB8"/>
<stop offset="0.8086" stop-color="#F4DCCE"/>
<stop offset="1" stop-color="#F8E1D4"/>
</linearGradient>
<linearGradient id="paint2_linear" x1="95.4888" y1="108.175" x2="188.741" y2="108.175" gradientUnits="userSpaceOnUse">
<stop stop-color="#F4C09F"/>
<stop offset="0.2354" stop-color="#F3C7AB"/>
<stop offset="0.543" stop-color="#F0CEB8"/>
<stop offset="0.8086" stop-color="#F4DCCE"/>
<stop offset="1" stop-color="#F8E1D4"/>
</linearGradient>
<linearGradient id="paint3_linear" x1="95.4888" y1="117.062" x2="201.323" y2="117.062" gradientUnits="userSpaceOnUse">
<stop stop-color="#F4C09F"/>
<stop offset="0.2354" stop-color="#F3C7AB"/>
<stop offset="0.543" stop-color="#F4DCCE"/>
<stop offset="0.8086" stop-color="#F4DCCE"/>
<stop offset="1" stop-color="#F9E5DA"/>
</linearGradient>
<linearGradient id="paint4_linear" x1="66.6245" y1="77.443" x2="173.199" y2="77.443" gradientUnits="userSpaceOnUse">
<stop stop-color="#F4C09F"/>
<stop offset="0.2354" stop-color="#F3C7AB"/>
<stop offset="0.543" stop-color="#F0CEB8"/>
<stop offset="0.8086" stop-color="#F4DCCE"/>
<stop offset="1" stop-color="#F9E5DA"/>
</linearGradient>
<linearGradient id="paint5_linear" x1="66.6245" y1="67.4466" x2="159.877" y2="67.4466" gradientUnits="userSpaceOnUse">
<stop stop-color="#F4C09F"/>
<stop offset="0.2354" stop-color="#F3C7AB"/>
<stop offset="0.543" stop-color="#F0CEB8"/>
<stop offset="0.8086" stop-color="#F4DCCE"/>
<stop offset="1" stop-color="#F8E1D4"/>
</linearGradient>
<linearGradient id="paint6_linear" x1="116.951" y1="168.527" x2="253.129" y2="168.527" gradientUnits="userSpaceOnUse">
<stop stop-color="#F4C09F"/>
<stop offset="0.2354" stop-color="#F3C7AB"/>
<stop offset="0.543" stop-color="#F0CEB8"/>
<stop offset="0.8086" stop-color="#F4DCCE"/>
<stop offset="1" stop-color="#F9E5DA"/>
</linearGradient>
<linearGradient id="paint7_linear" x1="114.731" y1="182.226" x2="271.632" y2="182.226" gradientUnits="userSpaceOnUse">
<stop stop-color="#F4C09F"/>
<stop offset="0.2354" stop-color="#F3C7AB"/>
<stop offset="0.543" stop-color="#F0CEB8"/>
<stop offset="0.8086" stop-color="#F4DCCE"/>
<stop offset="1" stop-color="#F9E5DA"/>
</linearGradient>
<linearGradient id="paint8_linear" x1="51.0825" y1="57.4495" x2="159.877" y2="57.4495" gradientUnits="userSpaceOnUse">
<stop stop-color="#F4C09F"/>
<stop offset="0.2354" stop-color="#F3C7AB"/>
<stop offset="0.543" stop-color="#F0CEB8"/>
<stop offset="0.8086" stop-color="#F4DCCE"/>
<stop offset="1" stop-color="#F9E5DA"/>
</linearGradient>
<linearGradient id="paint9_linear" x1="114.731" y1="147.053" x2="223.526" y2="147.053" gradientUnits="userSpaceOnUse">
<stop stop-color="#F4C09F"/>
<stop offset="0.2354" stop-color="#F3C7AB"/>
<stop offset="0.543" stop-color="#F0CEB8"/>
<stop offset="0.8086" stop-color="#F4DCCE"/>
<stop offset="1" stop-color="#F9E5DA"/>
</linearGradient>
<linearGradient id="paint10_linear" x1="108.07" y1="126.688" x2="201.323" y2="126.688" gradientUnits="userSpaceOnUse">
<stop stop-color="#F4C09F"/>
<stop offset="0.2354" stop-color="#F3C7AB"/>
<stop offset="0.543" stop-color="#F0CEB8"/>
<stop offset="0.8086" stop-color="#F4DCCE"/>
<stop offset="1" stop-color="#F9E5DA"/>
</linearGradient>
<linearGradient id="paint11_linear" x1="108.07" y1="134.833" x2="223.526" y2="134.833" gradientUnits="userSpaceOnUse">
<stop stop-color="#F4C09F"/>
<stop offset="0.2354" stop-color="#F3C7AB"/>
<stop offset="0.543" stop-color="#F0CEB8"/>
<stop offset="0.8086" stop-color="#F4DCCE"/>
<stop offset="1" stop-color="#F9E5DA"/>
</linearGradient>
<linearGradient id="paint12_linear" x1="114.731" y1="154.458" x2="253.13" y2="154.458" gradientUnits="userSpaceOnUse">
<stop stop-color="#F4C09F"/>
<stop offset="0.2354" stop-color="#F3C7AB"/>
<stop offset="0.543" stop-color="#F0CEB8"/>
<stop offset="0.8086" stop-color="#F4DCCE"/>
<stop offset="1" stop-color="#F9E5DA"/>
</linearGradient>
<linearGradient id="paint13_linear" x1="74.0254" y1="234.434" x2="153.956" y2="234.434" gradientUnits="userSpaceOnUse">
<stop stop-color="#F4C09F"/>
<stop offset="0.2354" stop-color="#F3C7AB"/>
<stop offset="0.543" stop-color="#F0CEB8"/>
<stop offset="0.8086" stop-color="#F4DCCE"/>
<stop offset="1" stop-color="#F9E5DA"/>
</linearGradient>
<linearGradient id="paint14_linear" x1="96.2285" y1="224.807" x2="153.956" y2="224.807" gradientUnits="userSpaceOnUse">
<stop stop-color="#F4C09F"/>
<stop offset="0.2354" stop-color="#F3C7AB"/>
<stop offset="0.543" stop-color="#F0CEB8"/>
<stop offset="0.8086" stop-color="#F4DCCE"/>
<stop offset="1" stop-color="#F9E5DA"/>
</linearGradient>
<linearGradient id="paint15_linear" x1="96.2285" y1="218.143" x2="192.441" y2="218.143" gradientUnits="userSpaceOnUse">
<stop stop-color="#F4C09F"/>
<stop offset="0.2354" stop-color="#F3C7AB"/>
<stop offset="0.543" stop-color="#F0CEB8"/>
<stop offset="0.8086" stop-color="#F4DCCE"/>
<stop offset="1" stop-color="#F9E5DA"/>
</linearGradient>
<linearGradient id="paint16_linear" x1="131.753" y1="227.399" x2="271.632" y2="227.399" gradientUnits="userSpaceOnUse">
<stop stop-color="#F4C09F"/>
<stop offset="0.2354" stop-color="#F3C7AB"/>
<stop offset="0.543" stop-color="#F0CEB8"/>
<stop offset="0.8086" stop-color="#F4DCCE"/>
<stop offset="1" stop-color="#F9E5DA"/>
</linearGradient>
<linearGradient id="paint17_linear" x1="106.59" y1="207.405" x2="192.441" y2="207.405" gradientUnits="userSpaceOnUse">
<stop stop-color="#F4C09F"/>
<stop offset="0.2354" stop-color="#F3C7AB"/>
<stop offset="0.543" stop-color="#F0CEB8"/>
<stop offset="0.8086" stop-color="#F4DCCE"/>
<stop offset="1" stop-color="#F9E5DA"/>
</linearGradient>
<linearGradient id="paint18_linear" x1="74.0254" y1="246.282" x2="131.753" y2="246.282" gradientUnits="userSpaceOnUse">
<stop stop-color="#F4C09F"/>
<stop offset="0.2354" stop-color="#F3C7AB"/>
<stop offset="0.543" stop-color="#F0CEB8"/>
<stop offset="0.8086" stop-color="#F4DCCE"/>
<stop offset="1" stop-color="#F9E5DA"/>
</linearGradient>
<linearGradient id="paint19_linear" x1="22.2188" y1="18.5715" x2="130.273" y2="18.5715" gradientUnits="userSpaceOnUse">
<stop stop-color="#F4C09F"/>
<stop offset="0.2354" stop-color="#F3C7AB"/>
<stop offset="0.543" stop-color="#F0CEB8"/>
<stop offset="0.8086" stop-color="#F4DCCE"/>
<stop offset="1" stop-color="#F9E5DA"/>
</linearGradient>
<linearGradient id="paint20_linear" x1="37.0205" y1="28.1986" x2="130.273" y2="28.1986" gradientUnits="userSpaceOnUse">
<stop stop-color="#F4C09F"/>
<stop offset="0.2354" stop-color="#F3C7AB"/>
<stop offset="0.543" stop-color="#F0CEB8"/>
<stop offset="0.8086" stop-color="#F4DCCE"/>
<stop offset="1" stop-color="#F8E1D4"/>
</linearGradient>
<linearGradient id="paint21_linear" x1="37.0205" y1="37.8247" x2="144.335" y2="37.8247" gradientUnits="userSpaceOnUse">
<stop stop-color="#74AEB4"/>
<stop offset="0.0001" stop-color="#F4C09F"/>
<stop offset="0.2354" stop-color="#F3C7AB"/>
<stop offset="0.543" stop-color="#F0CEB8"/>
<stop offset="0.8086" stop-color="#F4DCCE"/>
<stop offset="1" stop-color="#F9E5DA"/>
</linearGradient>
<linearGradient id="paint22_linear" x1="51.0825" y1="48.1927" x2="144.335" y2="48.1927" gradientUnits="userSpaceOnUse">
<stop stop-color="#F4C09F"/>
<stop offset="0.2354" stop-color="#F3C7AB"/>
<stop offset="0.543" stop-color="#F0CEB8"/>
<stop offset="0.8086" stop-color="#F4DCCE"/>
<stop offset="1" stop-color="#F8E1D4"/>
</linearGradient>
<linearGradient id="paint23_linear" x1="114.731" y1="189.633" x2="236.847" y2="189.633" gradientUnits="userSpaceOnUse">
<stop stop-color="#F4C09F"/>
<stop offset="0.2354" stop-color="#F3C7AB"/>
<stop offset="0.543" stop-color="#F0CEB8"/>
<stop offset="0.8086" stop-color="#F4DCCE"/>
<stop offset="1" stop-color="#F9E5DA"/>
</linearGradient>
<linearGradient id="paint24_linear" x1="106.59" y1="200.741" x2="236.847" y2="200.741" gradientUnits="userSpaceOnUse">
<stop stop-color="#F4C09F"/>
<stop offset="0.2354" stop-color="#F3C7AB"/>
<stop offset="0.543" stop-color="#F0CEB8"/>
<stop offset="0.8086" stop-color="#F4DCCE"/>
<stop offset="1" stop-color="#F9E5DA"/>
</linearGradient>
<linearGradient id="paint25_linear" x1="22.2188" y1="102.806" x2="116.951" y2="102.806" gradientUnits="userSpaceOnUse">
<stop stop-color="#F4C09F"/>
<stop offset="0.2354" stop-color="#F3C7AB"/>
<stop offset="0.543" stop-color="#F0CEB8"/>
<stop offset="0.8086" stop-color="#F4DCCE"/>
<stop offset="1" stop-color="#F9E5DA"/>
</linearGradient>
<clipPath id="clip0">
<rect width="294" height="270" fill="white"/>
</clipPath>
</defs>
</svg>
