<svg width="275" height="270" viewBox="0 0 275 270" fill="none" xmlns="http://www.w3.org/2000/svg">
<g clip-path="url(#clip0)">
<path d="M120.396 92.3727L59.4463 84.1182V94.4363L120.396 104.754V92.3727Z" fill="url(#paint0_linear)"/>
<path d="M214.59 58.6665L150.87 55.915L55.2905 78.6149L120.396 87.5572L214.59 58.6665Z" fill="url(#paint1_linear)"/>
<path d="M120.396 92.3728L213.205 62.1064L214.591 61.4185V58.667L120.396 87.5577V92.3728Z" fill="url(#paint2_linear)"/>
<path d="M120.396 104.755L213.205 68.9852V67.6094V62.1064L120.396 92.3729V104.755Z" fill="url(#paint3_linear)"/>
<path d="M122.474 120.575L239.524 72.4235L240.91 71.7356V67.6084L122.474 115.76V120.575Z" fill="url(#paint4_linear)"/>
<path d="M127.322 155.657L263.766 82.054L265.151 81.3661V77.9268L127.322 150.154V155.657Z" fill="url(#paint5_linear)"/>
<path d="M240.91 67.6084H213.205V68.9841L120.396 104.754L59.4462 94.4355L37.2827 101.314L122.474 115.76L240.91 67.6084Z" fill="url(#paint6_linear)"/>
<path d="M127.322 168.038L263.766 88.2446V86.181V82.0537L127.322 155.656V168.038Z" fill="url(#paint7_linear)"/>
<path d="M122.474 132.957L239.524 79.3026V77.9268V72.4238L122.474 120.575V132.957Z" fill="url(#paint8_linear)"/>
<path d="M120.396 87.5576L55.2905 78.6152V78.7267V83.4303L59.4462 84.1182L120.396 92.3727V87.5576Z" fill="url(#paint9_linear)"/>
<path d="M133.555 195.553L-1.50342 152.905V157.033L0.574406 157.72L133.555 201.056V195.553Z" fill="url(#paint10_linear)"/>
<path d="M0.574219 157.721V168.039L133.555 213.439V201.057L0.574219 157.721Z" fill="url(#paint11_linear)"/>
<path d="M288.007 88.2453L263.766 86.1816V88.2453L127.322 168.039L22.0453 143.275L-1.50342 152.905L133.555 195.554L288.007 88.2453Z" fill="url(#paint12_linear)"/>
<path d="M133.555 213.439L286.622 97.8757V93.0605L133.555 201.057V213.439Z" fill="url(#paint13_linear)"/>
<path d="M122.474 115.76L37.2827 101.314V106.817L41.4384 107.505L122.474 120.575V115.76Z" fill="url(#paint14_linear)"/>
<path d="M133.555 195.553V201.056L286.622 93.0602L288.007 91.6845V88.2451L133.555 195.553Z" fill="url(#paint15_linear)"/>
<path d="M265.151 77.9268H239.524V79.3025L122.474 132.957L41.4384 117.823L19.2749 125.39L127.322 150.154L265.151 77.9268Z" fill="url(#paint16_linear)"/>
<path d="M122.474 120.575L41.4385 107.506V117.824L122.474 132.957V120.575Z" fill="url(#paint17_linear)"/>
<path d="M127.322 155.658L22.0454 131.582V143.276L127.322 168.039V155.658Z" fill="url(#paint18_linear)"/>
<path d="M127.322 150.154L19.2749 125.391V130.894L22.0453 131.581L127.322 155.657V150.154Z" fill="url(#paint19_linear)"/>
<path d="M4.88154 153.127V163.445L137.862 208.844M4.88154 153.127L137.862 196.463M4.88154 153.127L2.80371 152.439V148.312M137.862 208.844V196.463M137.862 208.844L290.929 93.2816V88.4665M137.862 196.463L290.929 88.4665M137.862 196.463V190.96M26.3524 126.987V138.681M26.3524 126.987L131.629 151.063M26.3524 126.987L23.582 126.3V120.797M26.3524 138.681L131.629 163.445M26.3524 138.681L2.80371 148.312M131.629 163.445V151.063M131.629 163.445L268.073 83.6514V81.5877M131.629 151.063L268.073 77.4605M131.629 151.063V145.56M45.7454 102.912L126.781 115.981M45.7454 102.912V113.23M45.7454 102.912L41.5898 102.224V96.721M45.7454 113.23L126.781 128.363M45.7454 113.23L23.582 120.797M126.781 128.363V115.981M126.781 128.363L243.831 74.709M126.781 115.981L243.831 67.8303M126.781 115.981V111.166M63.7532 79.5241L124.703 87.7786M63.7532 79.5241V89.8422M63.7532 79.5241L59.5976 78.8362V74.1316V74.0211M63.7532 89.8422L124.703 100.16M63.7532 89.8422L41.5898 96.721M124.703 100.16V87.7786M124.703 100.16L217.512 64.3909V63.0151M124.703 87.7786L217.512 57.5122M124.703 87.7786V82.9635M217.512 57.5122V63.0151M217.512 57.5122L218.897 56.8243V54.0728M243.831 67.8303V74.709M243.831 67.8303L245.217 67.1424V63.0151M268.073 77.4605V81.5877M268.073 77.4605L269.458 76.7726V73.3333M290.929 88.4665L292.314 87.0907V83.6514M2.80371 148.312L137.862 190.96M137.862 190.96L292.314 83.6514M292.314 83.6514L268.073 81.5877M269.458 73.3333L131.629 145.56M269.458 73.3333H243.831V74.709M131.629 145.56L23.582 120.797M41.5898 96.721L126.781 111.166M126.781 111.166L245.217 63.0151M245.217 63.0151H217.512M59.5976 74.0211L155.177 51.3213L218.897 54.0728M59.5976 74.0211L124.703 82.9635M124.703 82.9635L218.897 54.0728" stroke="#202020" stroke-width="1.5"/>
</g>
<defs>
<linearGradient id="paint0_linear" x1="81.9263" y1="138.268" x2="94.147" y2="70.3335" gradientUnits="userSpaceOnUse">
<stop stop-color="#F9E5DA"/>
<stop offset="0.2168" stop-color="#F8E1D4"/>
<stop offset="0.4523" stop-color="#F4DCCE"/>
<stop offset="0.6966" stop-color="#F0CEB8"/>
<stop offset="0.9455" stop-color="#F3C7AB"/>
<stop offset="1" stop-color="#F4C09F"/>
</linearGradient>
<linearGradient id="paint1_linear" x1="122.821" y1="80.6792" x2="211.898" y2="-9.01146" gradientUnits="userSpaceOnUse">
<stop stop-color="#F9E5DA"/>
<stop offset="0.2168" stop-color="#F8E1D4"/>
<stop offset="0.4523" stop-color="#F4DCCE"/>
<stop offset="0.6966" stop-color="#F0CEB8"/>
<stop offset="0.9455" stop-color="#F3C7AB"/>
<stop offset="1" stop-color="#F4C09F"/>
</linearGradient>
<linearGradient id="paint2_linear" x1="152.673" y1="163.017" x2="167.336" y2="74.2198" gradientUnits="userSpaceOnUse">
<stop stop-color="#F9E5DA"/>
<stop offset="0.2168" stop-color="#F8E1D4"/>
<stop offset="0.4523" stop-color="#F4DCCE"/>
<stop offset="0.6966" stop-color="#F0CEB8"/>
<stop offset="0.9455" stop-color="#F3C7AB"/>
<stop offset="1" stop-color="#F4C09F"/>
</linearGradient>
<linearGradient id="paint3_linear" x1="131.478" y1="115.763" x2="198.888" y2="47.8887" gradientUnits="userSpaceOnUse">
<stop stop-color="#F9E5DA"/>
<stop offset="0.2168" stop-color="#F8E1D4"/>
<stop offset="0.4523" stop-color="#F4DCCE"/>
<stop offset="0.6966" stop-color="#F0CEB8"/>
<stop offset="0.9455" stop-color="#F3C7AB"/>
<stop offset="1" stop-color="#F4C09F"/>
</linearGradient>
<linearGradient id="paint4_linear" x1="195.179" y1="139.21" x2="180.585" y2="89.7157" gradientUnits="userSpaceOnUse">
<stop stop-color="#F9E5DA"/>
<stop offset="0.2168" stop-color="#F8E1D4"/>
<stop offset="0.4523" stop-color="#F4DCCE"/>
<stop offset="0.6966" stop-color="#F0CEB8"/>
<stop offset="0.9455" stop-color="#F3C7AB"/>
<stop offset="1" stop-color="#F4C09F"/>
</linearGradient>
<linearGradient id="paint5_linear" x1="215.048" y1="162.512" x2="195.441" y2="114.201" gradientUnits="userSpaceOnUse">
<stop stop-color="#F9E5DA"/>
<stop offset="0.2168" stop-color="#F8E1D4"/>
<stop offset="0.4523" stop-color="#F4DCCE"/>
<stop offset="0.6966" stop-color="#F0CEB8"/>
<stop offset="0.9455" stop-color="#F3C7AB"/>
<stop offset="1" stop-color="#F4C09F"/>
</linearGradient>
<linearGradient id="paint6_linear" x1="121.608" y1="101.831" x2="239.576" y2="-16.9484" gradientUnits="userSpaceOnUse">
<stop stop-color="#F9E5DA"/>
<stop offset="0.2168" stop-color="#F8E1D4"/>
<stop offset="0.4523" stop-color="#F4DCCE"/>
<stop offset="0.6966" stop-color="#F0CEB8"/>
<stop offset="0.9455" stop-color="#F3C7AB"/>
<stop offset="1" stop-color="#F4C09F"/>
</linearGradient>
<linearGradient id="paint7_linear" x1="138.23" y1="178.872" x2="248.975" y2="67.3652" gradientUnits="userSpaceOnUse">
<stop stop-color="#F9E5DA"/>
<stop offset="0.2168" stop-color="#F8E1D4"/>
<stop offset="0.4523" stop-color="#F4DCCE"/>
<stop offset="0.6966" stop-color="#F0CEB8"/>
<stop offset="0.9455" stop-color="#F3C7AB"/>
<stop offset="1" stop-color="#F4C09F"/>
</linearGradient>
<linearGradient id="paint8_linear" x1="135.114" y1="145.51" x2="223.503" y2="56.5128" gradientUnits="userSpaceOnUse">
<stop stop-color="#F9E5DA"/>
<stop offset="0.2168" stop-color="#F8E1D4"/>
<stop offset="0.4523" stop-color="#F4DCCE"/>
<stop offset="0.6966" stop-color="#F0CEB8"/>
<stop offset="0.9455" stop-color="#F3C7AB"/>
<stop offset="1" stop-color="#F4C09F"/>
</linearGradient>
<linearGradient id="paint9_linear" x1="80.8514" y1="124.74" x2="88.2612" y2="82.5703" gradientUnits="userSpaceOnUse">
<stop stop-color="#F9E5DA"/>
<stop offset="0.2168" stop-color="#F8E1D4"/>
<stop offset="0.4523" stop-color="#F4DCCE"/>
<stop offset="0.6966" stop-color="#F0CEB8"/>
<stop offset="0.9455" stop-color="#F3C7AB"/>
<stop offset="1" stop-color="#F4C09F"/>
</linearGradient>
<linearGradient id="paint10_linear" x1="45.0109" y1="237.801" x2="66.8364" y2="173.767" gradientUnits="userSpaceOnUse">
<stop stop-color="#F9E5DA"/>
<stop offset="0.2168" stop-color="#F8E1D4"/>
<stop offset="0.4523" stop-color="#F4DCCE"/>
<stop offset="0.6966" stop-color="#F0CEB8"/>
<stop offset="0.9455" stop-color="#F3C7AB"/>
<stop offset="1" stop-color="#F4C09F"/>
</linearGradient>
<linearGradient id="paint11_linear" x1="49.7663" y1="231.939" x2="73.9817" y2="166.155" gradientUnits="userSpaceOnUse">
<stop stop-color="#F9E5DA"/>
<stop offset="0.2168" stop-color="#F8E1D4"/>
<stop offset="0.4523" stop-color="#F4DCCE"/>
<stop offset="0.6966" stop-color="#F0CEB8"/>
<stop offset="0.9455" stop-color="#F3C7AB"/>
<stop offset="1" stop-color="#F4C09F"/>
</linearGradient>
<linearGradient id="paint12_linear" x1="114.163" y1="149.466" x2="290.254" y2="-27.8372" gradientUnits="userSpaceOnUse">
<stop stop-color="#F9E5DA"/>
<stop offset="0.2168" stop-color="#F8E1D4"/>
<stop offset="0.4523" stop-color="#F4DCCE"/>
<stop offset="0.6966" stop-color="#F0CEB8"/>
<stop offset="0.9455" stop-color="#F3C7AB"/>
<stop offset="1" stop-color="#F4C09F"/>
</linearGradient>
<linearGradient id="paint13_linear" x1="139.615" y1="219.457" x2="275.811" y2="82.3246" gradientUnits="userSpaceOnUse">
<stop stop-color="#F9E5DA"/>
<stop offset="0.2168" stop-color="#F8E1D4"/>
<stop offset="0.4523" stop-color="#F4DCCE"/>
<stop offset="0.6966" stop-color="#F0CEB8"/>
<stop offset="0.9455" stop-color="#F3C7AB"/>
<stop offset="1" stop-color="#F4C09F"/>
</linearGradient>
<linearGradient id="paint14_linear" x1="68.1687" y1="159.787" x2="80.4865" y2="107.696" gradientUnits="userSpaceOnUse">
<stop stop-color="#F9E5DA"/>
<stop offset="0.2168" stop-color="#F8E1D4"/>
<stop offset="0.4523" stop-color="#F4DCCE"/>
<stop offset="0.6966" stop-color="#F0CEB8"/>
<stop offset="0.9455" stop-color="#F3C7AB"/>
<stop offset="1" stop-color="#F4C09F"/>
</linearGradient>
<linearGradient id="paint15_linear" x1="225.331" y1="183.733" x2="212.954" y2="150.029" gradientUnits="userSpaceOnUse">
<stop stop-color="#F9E5DA"/>
<stop offset="0.2168" stop-color="#F8E1D4"/>
<stop offset="0.4523" stop-color="#F4DCCE"/>
<stop offset="0.6966" stop-color="#F0CEB8"/>
<stop offset="0.9455" stop-color="#F3C7AB"/>
<stop offset="1" stop-color="#F4C09F"/>
</linearGradient>
<linearGradient id="paint16_linear" x1="115.895" y1="127.799" x2="261.721" y2="-19.0306" gradientUnits="userSpaceOnUse">
<stop stop-color="#F9E5DA"/>
<stop offset="0.2168" stop-color="#F8E1D4"/>
<stop offset="0.4523" stop-color="#F4DCCE"/>
<stop offset="0.6966" stop-color="#F0CEB8"/>
<stop offset="0.9455" stop-color="#F3C7AB"/>
<stop offset="1" stop-color="#F4C09F"/>
</linearGradient>
<linearGradient id="paint17_linear" x1="76.3835" y1="164.92" x2="85.2062" y2="93.2069" gradientUnits="userSpaceOnUse">
<stop stop-color="#F9E5DA"/>
<stop offset="0.2168" stop-color="#F8E1D4"/>
<stop offset="0.4523" stop-color="#F4DCCE"/>
<stop offset="0.6966" stop-color="#F0CEB8"/>
<stop offset="0.9455" stop-color="#F3C7AB"/>
<stop offset="1" stop-color="#F4C09F"/>
</linearGradient>
<linearGradient id="paint18_linear" x1="64.5697" y1="188.474" x2="80.8633" y2="125.337" gradientUnits="userSpaceOnUse">
<stop stop-color="#F9E5DA"/>
<stop offset="0.2168" stop-color="#F8E1D4"/>
<stop offset="0.4523" stop-color="#F4DCCE"/>
<stop offset="0.6966" stop-color="#F0CEB8"/>
<stop offset="0.9455" stop-color="#F3C7AB"/>
<stop offset="1" stop-color="#F4C09F"/>
</linearGradient>
<linearGradient id="paint19_linear" x1="58.3775" y1="197.9" x2="73.8515" y2="137.566" gradientUnits="userSpaceOnUse">
<stop stop-color="#F9E5DA"/>
<stop offset="0.2168" stop-color="#F8E1D4"/>
<stop offset="0.4523" stop-color="#F4DCCE"/>
<stop offset="0.6966" stop-color="#F0CEB8"/>
<stop offset="0.9455" stop-color="#F3C7AB"/>
<stop offset="1" stop-color="#F4C09F"/>
</linearGradient>
<clipPath id="clip0">
<rect width="294" height="270" fill="white"/>
</clipPath>
</defs>
</svg>
