<svg width="294" height="270" viewBox="0 0 294 270" fill="none" xmlns="http://www.w3.org/2000/svg">
<g clip-path="url(#clip0)">
<path d="M26.1533 14.0068V20.0067L54.9361 63.8058V58.4059L26.1533 14.0068Z" fill="url(#paint0_linear)"/>
<path d="M71.1269 51.8053L48.1439 16.3521L42.3441 7.40625L26.1538 14.0061L54.9366 58.4052L71.1269 51.8053Z" fill="url(#paint1_linear)"/>
<path d="M178.462 158.603L149.08 114.204C144.482 116.804 134.928 122.004 133.489 122.004L162.872 166.403L178.462 158.603Z" fill="url(#paint2_linear)"/>
<path d="M164.67 83.605L149.08 90.2048V78.2051L133.489 84.805V72.8052L117.898 79.4051V67.4053L102.308 74.0052V62.0054L86.717 68.6053V56.6056L71.1264 63.2054V51.8057L54.936 58.4055L54.9998 63L65.4998 59.5V71L81.4998 64V76L96.9998 69.5V81.5L112.5 75V87L128 80.5V92.5L143.5 86V97.5L158.5 91.5L159 98L164.67 95.5V83.605Z" fill="url(#paint3_linear)"/>
<path d="M194.652 139.404L164.67 96.2051L156.875 99.505L149.08 102.805L178.462 147.204L194.652 139.404Z" fill="url(#paint4_linear)"/>
<path d="M178.462 147.204L149.08 102.805V114.204L178.462 158.603V147.204Z" fill="url(#paint5_linear)"/>
<path d="M164.671 96.2052L194.653 139.404L267.209 108.805L208.444 20.0068L142.484 49.381L164.671 83.6055V96.2052Z" fill="url(#paint6_linear)"/>
<path d="M133.489 84.8056L149.08 78.2057L120.297 33.8066L110.811 37.823L133.489 72.8058V84.8056Z" fill="url(#paint7_linear)"/>
<path d="M71.1261 63.2059L86.7168 56.6061L64.0384 21.6232L57.934 12.207L48.1431 16.3529L71.1261 51.8062V63.2059Z" fill="url(#paint8_linear)"/>
<path d="M117.899 79.4052L133.489 72.8053L110.811 37.8225L104.707 28.4062L95.2202 32.4226L117.899 67.4054V79.4052Z" fill="url(#paint9_linear)"/>
<path d="M149.08 90.2055L164.67 83.6056L142.484 49.3811L135.888 39.2065L126.52 43.4064L120.297 33.8066L149.08 78.2057V90.2055Z" fill="url(#paint10_linear)"/>
<path d="M102.308 74.0058L117.899 67.4059L95.2201 32.423L89.1157 23.0068L79.6294 27.0232L102.308 62.006V74.0058Z" fill="url(#paint11_linear)"/>
<path d="M86.7175 68.6054L102.308 62.0055L79.6297 27.0226L73.5254 17.6064L64.0391 21.6228L86.7175 56.6056V68.6054Z" fill="url(#paint12_linear)"/>
<path d="M131.691 204.203L102.308 159.804V171.203L131.691 215.603V204.203Z" fill="url(#paint13_linear)"/>
<path d="M54.936 216.802V228.202L84.3185 272.601V261.201L54.936 216.802Z" fill="url(#paint14_linear)"/>
<path d="M115.5 234.802L86.1175 190.403L71.1265 198.203L100.509 242.602L115.5 234.802Z" fill="url(#paint15_linear)"/>
<path d="M162.872 166.403L133.489 122.004V133.404L162.872 177.803V166.403Z" fill="url(#paint16_linear)"/>
<path d="M100.509 254.002L71.1264 209.603L54.936 216.802L84.3185 261.201L100.509 254.002Z" fill="url(#paint17_linear)"/>
<path d="M194.653 139.404V146.004L267.21 114.205V108.805L194.653 139.404Z" fill="url(#paint18_linear)"/>
<path d="M136 89L143.5 97.5V86L136 89Z" fill="url(#paint19_linear)"/>
<path d="M120.5 84L128 92V80.5L120.5 84Z" fill="url(#paint20_linear)"/>
<path d="M105 78.5L112.5 87V75L105 78.5Z" fill="url(#paint21_linear)"/>
<path d="M89.5 73L96.5 81V70L89.5 73Z" fill="url(#paint22_linear)"/>
<path d="M73.5 67.5L81 76V64.5L73.5 67.5Z" fill="url(#paint23_linear)"/>
<path d="M59 62L65.5 70.5V59.5L59 62Z" fill="url(#paint24_linear)"/>
<path d="M178.5 146.5V158L163 166V177.5L147.5 184.5V195.5L131.69 203.5V215L116 222.5L115.5 234.5L100.5 242V253.5L84.5 260.5V273L91 269.5V264L107.5 256.5V245.5L122.5 237.5V226L138.5 218.5V207L154 199V188L170 180.5V169L185.5 161.332V150L194.653 145.5V139L178.5 146.5Z" fill="url(#paint25_linear)"/>
<path d="M100.509 242.602L71.1265 198.203V209.603L100.509 254.002V242.602Z" fill="url(#paint26_linear)"/>
<path d="M147.281 185.004L117.898 140.604V152.004L147.281 196.403V185.004Z" fill="url(#paint27_linear)"/>
<path d="M162.872 177.803L133.489 133.404L117.898 140.604L147.281 185.003L162.872 177.803Z" fill="url(#paint28_linear)"/>
<path d="M131.69 215.603L102.308 171.204C97.3118 173.804 87.0771 179.003 86.1177 179.003L115.5 223.403L131.69 215.603Z" fill="url(#paint29_linear)"/>
<path d="M115.5 223.402L86.1177 179.003V190.403L115.5 234.802V223.402Z" fill="url(#paint30_linear)"/>
<path d="M147.281 196.403L117.899 152.004L102.308 159.804L131.691 204.203L147.281 196.403Z" fill="url(#paint31_linear)"/>
<path d="M55.1392 211.202L84.5217 255.601M55.1392 211.202V222.602L84.5217 268M55.1392 211.202L71.3296 204.002M84.5217 255.601V268M84.5217 255.601L100.712 248.401M84.5217 268L91.1656 264.5V259.008L107.356 251.809V240.409L122.347 232.609V221.209L138.537 213.409V202.01L154.128 194.21V182.81L169.719 175.61V164.21L185.309 156.411V145.011L194.856 140.404M71.3296 192.603L100.712 237.002M71.3296 192.603V204.002M71.3296 192.603L86.3206 184.803M100.712 237.002V248.401M100.712 237.002L115.703 229.202M100.712 248.401L71.3296 204.002M86.3206 173.403L115.703 217.802M86.3206 173.403V184.803M86.3206 173.403C87.28 173.403 97.5139 168.203 102.511 165.603M115.703 217.802V229.202M115.703 217.802L131.893 210.002M115.703 229.202L86.3206 184.803M102.511 154.203L131.893 198.603M102.511 154.203V165.603M102.511 154.203L118.102 146.404M131.893 198.603V210.002M131.893 198.603L147.484 190.803M131.893 210.002L102.511 165.603M118.102 135.004L147.484 179.403M118.102 135.004V146.404M118.102 135.004L133.692 127.804M147.484 179.403V190.803M147.484 179.403L163.075 172.203M147.484 190.803L118.102 146.404M133.692 116.404L163.075 160.803M133.692 116.404V127.804M133.692 116.404C135.131 116.404 144.686 111.204 149.283 108.604M163.075 160.803V172.203M163.075 160.803L178.665 153.003M163.075 172.203L133.692 127.804M149.283 97.2046L178.665 141.604M149.283 97.2046V108.604M149.283 97.2046L157.078 93.9047L164.874 90.6048M178.665 141.604V153.003M178.665 141.604L194.856 133.804M178.665 153.003L149.283 108.604M194.856 140.404V133.804M194.856 140.404L267.412 108.604V103.205M194.856 133.804L164.874 90.6048M194.856 133.804L267.412 103.205M164.874 90.6048V78.005M164.874 90.6048L159 93.0914V86.5L143.643 92.8992M267.412 103.205L208.647 14.4064L142.687 43.7808M164.874 78.005L149.283 84.6049V72.6052M164.874 78.005L142.687 43.7808M149.283 72.6052L133.692 79.205V67.2053M149.283 72.6052L120.5 28.2061M133.692 67.2053L118.102 73.8051V61.8054M133.692 67.2053L111.014 32.222M118.102 61.8054L102.511 68.4052V56.4055M118.102 61.8054L95.4228 26.8221M102.511 56.4055L86.9202 63.0054V51.0056M102.511 56.4055L79.8321 21.4222M86.9202 51.0056L71.3296 57.6055V46.2057M86.9202 51.0056L64.2415 16.0223M71.3296 46.2057L55.1392 52.8056M71.3296 46.2057L48.3456 10.7516M55.1392 52.8056L26.3564 8.4065M55.1392 52.8056V58.2055M120.5 28.2061L126.723 37.8059L136.091 33.606L142.687 43.7808M120.5 28.2061L111.014 32.222M26.3564 8.4065L42.5468 1.80664L48.3456 10.7516M26.3564 8.4065V14.4064L55.1392 58.2055M55.1392 58.2055L58.9997 56.8497M111.014 32.222L104.91 22.8062L95.4228 26.8221M95.4228 26.8221L89.3188 17.4063L79.8321 21.4222M79.8321 21.4222L73.7281 12.0064L64.2415 16.0223M64.2415 16.0223L58.1375 6.60654L48.3456 10.7516M143.643 92.8992V80.8994L135.848 84.1994M143.643 92.8992L135.848 84.1994M128.053 87.4993V75.4996L120.257 78.7995M128.053 87.4993L135.848 84.1994M128.053 87.4993L120.257 78.7995M112.462 82.0994V70.0997L104.667 73.3996M112.462 82.0994L120.257 78.7995M112.462 82.0994L104.667 73.3996M96.8714 76.6995V64.6998L89.076 67.9997M96.8714 76.6995L104.667 73.3996M96.8714 76.6995L89.076 67.9997M81.2807 71.2997V59.2999L73.4853 62.5998M81.2807 71.2997L89.076 67.9997M81.2807 71.2997L73.4853 62.5998M65.69 65.8998V54.5L58.9997 56.8497M65.69 65.8998L73.4853 62.5998M65.69 65.8998L58.9997 56.8497" stroke="#202020" stroke-width="1.5"/>
</g>
<defs>
<linearGradient id="paint0_linear" x1="19.3635" y1="56.62" x2="41.4576" y2="38.1649" gradientUnits="userSpaceOnUse">
<stop offset="0.0082" stop-color="#F9E5DA"/>
<stop offset="0.334" stop-color="#F8E1D4"/>
<stop offset="0.5291" stop-color="#F4DCCE"/>
<stop offset="0.6899" stop-color="#F2D5C1"/>
<stop offset="0.8318" stop-color="#F0CEB8"/>
<stop offset="0.9602" stop-color="#F3C7AB"/>
<stop offset="1" stop-color="#F4C09F"/>
</linearGradient>
<linearGradient id="paint1_linear" x1="79.9495" y1="70.8222" x2="26.4393" y2="6.09485" gradientUnits="userSpaceOnUse">
<stop offset="0.0082" stop-color="#F9E5DA"/>
<stop offset="0.334" stop-color="#F8E1D4"/>
<stop offset="0.5291" stop-color="#F4DCCE"/>
<stop offset="0.6899" stop-color="#F2D5C1"/>
<stop offset="0.8318" stop-color="#F0CEB8"/>
<stop offset="0.9602" stop-color="#F3C7AB"/>
<stop offset="1" stop-color="#F4C09F"/>
</linearGradient>
<linearGradient id="paint2_linear" x1="133.489" y1="140.304" x2="178.462" y2="140.304" gradientUnits="userSpaceOnUse">
<stop offset="0.0082" stop-color="#F9E5DA"/>
<stop offset="0.334" stop-color="#F8E1D4"/>
<stop offset="0.5291" stop-color="#F4DCCE"/>
<stop offset="0.6899" stop-color="#F2D5C1"/>
<stop offset="0.8318" stop-color="#F0CEB8"/>
<stop offset="0.9602" stop-color="#F3C7AB"/>
<stop offset="1" stop-color="#F4C09F"/>
</linearGradient>
<linearGradient id="paint3_linear" x1="150.9" y1="89.7561" x2="48.6624" y2="49.8717" gradientUnits="userSpaceOnUse">
<stop offset="0.0082" stop-color="#F9E5DA"/>
<stop offset="0.334" stop-color="#F8E1D4"/>
<stop offset="0.5291" stop-color="#F4DCCE"/>
<stop offset="0.6899" stop-color="#F2D5C1"/>
<stop offset="0.8318" stop-color="#F0CEB8"/>
<stop offset="0.9602" stop-color="#F3C7AB"/>
<stop offset="1" stop-color="#F4C09F"/>
</linearGradient>
<linearGradient id="paint4_linear" x1="149.08" y1="121.705" x2="194.652" y2="121.705" gradientUnits="userSpaceOnUse">
<stop offset="0.0082" stop-color="#F9E5DA"/>
<stop offset="0.334" stop-color="#F8E1D4"/>
<stop offset="0.5291" stop-color="#F4DCCE"/>
<stop offset="0.6899" stop-color="#F2D5C1"/>
<stop offset="0.8318" stop-color="#F0CEB8"/>
<stop offset="0.9602" stop-color="#F3C7AB"/>
<stop offset="1" stop-color="#F4C09F"/>
</linearGradient>
<linearGradient id="paint5_linear" x1="149.08" y1="130.704" x2="178.462" y2="130.704" gradientUnits="userSpaceOnUse">
<stop offset="0.0082" stop-color="#F9E5DA"/>
<stop offset="0.334" stop-color="#F8E1D4"/>
<stop offset="0.5291" stop-color="#F4DCCE"/>
<stop offset="0.6899" stop-color="#F2D5C1"/>
<stop offset="0.8318" stop-color="#F0CEB8"/>
<stop offset="0.9602" stop-color="#F3C7AB"/>
<stop offset="1" stop-color="#F4C09F"/>
</linearGradient>
<linearGradient id="paint6_linear" x1="229.153" y1="121.769" x2="159.711" y2="18.1015" gradientUnits="userSpaceOnUse">
<stop offset="0.0082" stop-color="#F9E5DA"/>
<stop offset="0.334" stop-color="#F8E1D4"/>
<stop offset="0.5291" stop-color="#F4DCCE"/>
<stop offset="0.6899" stop-color="#F2D5C1"/>
<stop offset="0.8318" stop-color="#F0CEB8"/>
<stop offset="0.9602" stop-color="#F3C7AB"/>
<stop offset="1" stop-color="#F4C09F"/>
</linearGradient>
<linearGradient id="paint7_linear" x1="147.876" y1="92.9916" x2="107.368" y2="22.4743" gradientUnits="userSpaceOnUse">
<stop offset="0.0081" stop-color="#F9E5DA"/>
<stop offset="0.0082" stop-color="#F9E5DA"/>
<stop offset="0.334" stop-color="#F8E1D4"/>
<stop offset="0.5291" stop-color="#F4DCCE"/>
<stop offset="0.6899" stop-color="#F2D5C1"/>
<stop offset="0.8318" stop-color="#F0CEB8"/>
<stop offset="0.9602" stop-color="#F3C7AB"/>
<stop offset="1" stop-color="#F4C09F"/>
</linearGradient>
<linearGradient id="paint8_linear" x1="82.6857" y1="66.4695" x2="44.8534" y2="0.571223" gradientUnits="userSpaceOnUse">
<stop offset="0.0082" stop-color="#F9E5DA"/>
<stop offset="0.334" stop-color="#F8E1D4"/>
<stop offset="0.5291" stop-color="#F4DCCE"/>
<stop offset="0.6899" stop-color="#F2D5C1"/>
<stop offset="0.8318" stop-color="#F0CEB8"/>
<stop offset="0.9602" stop-color="#F3C7AB"/>
<stop offset="1" stop-color="#F4C09F"/>
</linearGradient>
<linearGradient id="paint9_linear" x1="130.811" y1="84.5514" x2="89.5535" y2="16.5281" gradientUnits="userSpaceOnUse">
<stop offset="0.0082" stop-color="#F9E5DA"/>
<stop offset="0.334" stop-color="#F8E1D4"/>
<stop offset="0.5291" stop-color="#F4DCCE"/>
<stop offset="0.6899" stop-color="#F2D5C1"/>
<stop offset="0.8318" stop-color="#F0CEB8"/>
<stop offset="0.9602" stop-color="#F3C7AB"/>
<stop offset="1" stop-color="#F4C09F"/>
</linearGradient>
<linearGradient id="paint10_linear" x1="166.22" y1="101.64" x2="120.848" y2="30.1831" gradientUnits="userSpaceOnUse">
<stop offset="0.0082" stop-color="#F9E5DA"/>
<stop offset="0.334" stop-color="#F8E1D4"/>
<stop offset="0.5291" stop-color="#F4DCCE"/>
<stop offset="0.6899" stop-color="#F2D5C1"/>
<stop offset="0.8318" stop-color="#F0CEB8"/>
<stop offset="0.9602" stop-color="#F3C7AB"/>
<stop offset="1" stop-color="#F4C09F"/>
</linearGradient>
<linearGradient id="paint11_linear" x1="117.87" y1="83.5862" x2="73.8821" y2="10.7244" gradientUnits="userSpaceOnUse">
<stop offset="0.0082" stop-color="#F9E5DA"/>
<stop offset="0.334" stop-color="#F8E1D4"/>
<stop offset="0.5291" stop-color="#F4DCCE"/>
<stop offset="0.6899" stop-color="#F2D5C1"/>
<stop offset="0.8318" stop-color="#F0CEB8"/>
<stop offset="0.9602" stop-color="#F3C7AB"/>
<stop offset="1" stop-color="#F4C09F"/>
</linearGradient>
<linearGradient id="paint12_linear" x1="100.664" y1="72.9945" x2="57.4043" y2="10.125" gradientUnits="userSpaceOnUse">
<stop offset="0.0082" stop-color="#F9E5DA"/>
<stop offset="0.334" stop-color="#F8E1D4"/>
<stop offset="0.5291" stop-color="#F4DCCE"/>
<stop offset="0.6899" stop-color="#F2D5C1"/>
<stop offset="0.8318" stop-color="#F0CEB8"/>
<stop offset="0.9602" stop-color="#F3C7AB"/>
<stop offset="1" stop-color="#F4C09F"/>
</linearGradient>
<linearGradient id="paint13_linear" x1="102.308" y1="187.703" x2="131.691" y2="187.703" gradientUnits="userSpaceOnUse">
<stop offset="0.0082" stop-color="#F9E5DA"/>
<stop offset="0.334" stop-color="#F8E1D4"/>
<stop offset="0.5291" stop-color="#F4DCCE"/>
<stop offset="0.6899" stop-color="#F2D5C1"/>
<stop offset="0.8318" stop-color="#F0CEB8"/>
<stop offset="0.9602" stop-color="#F3C7AB"/>
<stop offset="1" stop-color="#F4C09F"/>
</linearGradient>
<linearGradient id="paint14_linear" x1="54.936" y1="244.702" x2="84.3185" y2="244.702" gradientUnits="userSpaceOnUse">
<stop offset="0.0082" stop-color="#F9E5DA"/>
<stop offset="0.334" stop-color="#F8E1D4"/>
<stop offset="0.5291" stop-color="#F4DCCE"/>
<stop offset="0.6899" stop-color="#F2D5C1"/>
<stop offset="0.8318" stop-color="#F0CEB8"/>
<stop offset="0.9602" stop-color="#F3C7AB"/>
<stop offset="1" stop-color="#F4C09F"/>
</linearGradient>
<linearGradient id="paint15_linear" x1="71.1265" y1="216.503" x2="115.5" y2="216.503" gradientUnits="userSpaceOnUse">
<stop offset="0.0082" stop-color="#F9E5DA"/>
<stop offset="0.334" stop-color="#F8E1D4"/>
<stop offset="0.5291" stop-color="#F4DCCE"/>
<stop offset="0.6899" stop-color="#F2D5C1"/>
<stop offset="0.8318" stop-color="#F0CEB8"/>
<stop offset="0.9602" stop-color="#F3C7AB"/>
<stop offset="1" stop-color="#F4C09F"/>
</linearGradient>
<linearGradient id="paint16_linear" x1="133.489" y1="149.903" x2="162.872" y2="149.903" gradientUnits="userSpaceOnUse">
<stop offset="0.0082" stop-color="#F9E5DA"/>
<stop offset="0.334" stop-color="#F8E1D4"/>
<stop offset="0.5291" stop-color="#F4DCCE"/>
<stop offset="0.6899" stop-color="#F2D5C1"/>
<stop offset="0.8318" stop-color="#F0CEB8"/>
<stop offset="0.9602" stop-color="#F3C7AB"/>
<stop offset="1" stop-color="#F4C09F"/>
</linearGradient>
<linearGradient id="paint17_linear" x1="54.936" y1="235.402" x2="100.509" y2="235.402" gradientUnits="userSpaceOnUse">
<stop offset="0.0082" stop-color="#F9E5DA"/>
<stop offset="0.334" stop-color="#F8E1D4"/>
<stop offset="0.5291" stop-color="#F4DCCE"/>
<stop offset="0.6899" stop-color="#F2D5C1"/>
<stop offset="0.8318" stop-color="#F0CEB8"/>
<stop offset="0.9602" stop-color="#F3C7AB"/>
<stop offset="1" stop-color="#F4C09F"/>
</linearGradient>
<linearGradient id="paint18_linear" x1="255.589" y1="192.788" x2="229.944" y2="124.866" gradientUnits="userSpaceOnUse">
<stop offset="0.0082" stop-color="#F9E5DA"/>
<stop offset="0.334" stop-color="#F8E1D4"/>
<stop offset="0.5291" stop-color="#F4DCCE"/>
<stop offset="0.6899" stop-color="#F2D5C1"/>
<stop offset="0.8318" stop-color="#F0CEB8"/>
<stop offset="0.9602" stop-color="#F3C7AB"/>
<stop offset="1" stop-color="#F4C09F"/>
</linearGradient>
<linearGradient id="paint19_linear" x1="255.589" y1="192.788" x2="229.944" y2="124.866" gradientUnits="userSpaceOnUse">
<stop offset="0.0082" stop-color="#F9E5DA"/>
<stop offset="0.334" stop-color="#F8E1D4"/>
<stop offset="0.5291" stop-color="#F4DCCE"/>
<stop offset="0.6899" stop-color="#F2D5C1"/>
<stop offset="0.8318" stop-color="#F0CEB8"/>
<stop offset="0.9602" stop-color="#F3C7AB"/>
<stop offset="1" stop-color="#F4C09F"/>
</linearGradient>
<linearGradient id="paint20_linear" x1="255.589" y1="192.788" x2="229.944" y2="124.866" gradientUnits="userSpaceOnUse">
<stop offset="0.0082" stop-color="#F9E5DA"/>
<stop offset="0.334" stop-color="#F8E1D4"/>
<stop offset="0.5291" stop-color="#F4DCCE"/>
<stop offset="0.6899" stop-color="#F2D5C1"/>
<stop offset="0.8318" stop-color="#F0CEB8"/>
<stop offset="0.9602" stop-color="#F3C7AB"/>
<stop offset="1" stop-color="#F4C09F"/>
</linearGradient>
<linearGradient id="paint21_linear" x1="255.589" y1="192.788" x2="229.944" y2="124.866" gradientUnits="userSpaceOnUse">
<stop offset="0.0082" stop-color="#F9E5DA"/>
<stop offset="0.334" stop-color="#F8E1D4"/>
<stop offset="0.5291" stop-color="#F4DCCE"/>
<stop offset="0.6899" stop-color="#F2D5C1"/>
<stop offset="0.8318" stop-color="#F0CEB8"/>
<stop offset="0.9602" stop-color="#F3C7AB"/>
<stop offset="1" stop-color="#F4C09F"/>
</linearGradient>
<linearGradient id="paint22_linear" x1="255.589" y1="192.788" x2="229.944" y2="124.866" gradientUnits="userSpaceOnUse">
<stop offset="0.0082" stop-color="#F9E5DA"/>
<stop offset="0.334" stop-color="#F8E1D4"/>
<stop offset="0.5291" stop-color="#F4DCCE"/>
<stop offset="0.6899" stop-color="#F2D5C1"/>
<stop offset="0.8318" stop-color="#F0CEB8"/>
<stop offset="0.9602" stop-color="#F3C7AB"/>
<stop offset="1" stop-color="#F4C09F"/>
</linearGradient>
<linearGradient id="paint23_linear" x1="255.589" y1="192.788" x2="229.944" y2="124.866" gradientUnits="userSpaceOnUse">
<stop offset="0.0082" stop-color="#F9E5DA"/>
<stop offset="0.334" stop-color="#F8E1D4"/>
<stop offset="0.5291" stop-color="#F4DCCE"/>
<stop offset="0.6899" stop-color="#F2D5C1"/>
<stop offset="0.8318" stop-color="#F0CEB8"/>
<stop offset="0.9602" stop-color="#F3C7AB"/>
<stop offset="1" stop-color="#F4C09F"/>
</linearGradient>
<linearGradient id="paint24_linear" x1="255.589" y1="192.788" x2="229.944" y2="124.866" gradientUnits="userSpaceOnUse">
<stop offset="0.0082" stop-color="#F9E5DA"/>
<stop offset="0.334" stop-color="#F8E1D4"/>
<stop offset="0.5291" stop-color="#F4DCCE"/>
<stop offset="0.6899" stop-color="#F2D5C1"/>
<stop offset="0.8318" stop-color="#F0CEB8"/>
<stop offset="0.9602" stop-color="#F3C7AB"/>
<stop offset="1" stop-color="#F4C09F"/>
</linearGradient>
<linearGradient id="paint25_linear" x1="83.8246" y1="259.597" x2="161.887" y2="181.58" gradientUnits="userSpaceOnUse">
<stop offset="0.0082" stop-color="#F9E5DA"/>
<stop offset="0.334" stop-color="#F8E1D4"/>
<stop offset="0.5291" stop-color="#F4DCCE"/>
<stop offset="0.6899" stop-color="#F2D5C1"/>
<stop offset="0.8318" stop-color="#F0CEB8"/>
<stop offset="0.9602" stop-color="#F3C7AB"/>
<stop offset="1" stop-color="#F4C09F"/>
</linearGradient>
<linearGradient id="paint26_linear" x1="71.1265" y1="226.103" x2="100.509" y2="226.103" gradientUnits="userSpaceOnUse">
<stop offset="0.0082" stop-color="#F9E5DA"/>
<stop offset="0.334" stop-color="#F8E1D4"/>
<stop offset="0.5291" stop-color="#F4DCCE"/>
<stop offset="0.6899" stop-color="#F2D5C1"/>
<stop offset="0.8318" stop-color="#F0CEB8"/>
<stop offset="0.9602" stop-color="#F3C7AB"/>
<stop offset="1" stop-color="#F4C09F"/>
</linearGradient>
<linearGradient id="paint27_linear" x1="117.898" y1="168.504" x2="147.281" y2="168.504" gradientUnits="userSpaceOnUse">
<stop offset="0.0082" stop-color="#F9E5DA"/>
<stop offset="0.334" stop-color="#F8E1D4"/>
<stop offset="0.5291" stop-color="#F4DCCE"/>
<stop offset="0.6899" stop-color="#F2D5C1"/>
<stop offset="0.8318" stop-color="#F0CEB8"/>
<stop offset="0.9602" stop-color="#F3C7AB"/>
<stop offset="1" stop-color="#F4C09F"/>
</linearGradient>
<linearGradient id="paint28_linear" x1="117.898" y1="159.204" x2="162.872" y2="159.204" gradientUnits="userSpaceOnUse">
<stop offset="0.0082" stop-color="#F9E5DA"/>
<stop offset="0.334" stop-color="#F8E1D4"/>
<stop offset="0.5291" stop-color="#F4DCCE"/>
<stop offset="0.6899" stop-color="#F2D5C1"/>
<stop offset="0.8318" stop-color="#F0CEB8"/>
<stop offset="0.9602" stop-color="#F3C7AB"/>
<stop offset="1" stop-color="#F4C09F"/>
</linearGradient>
<linearGradient id="paint29_linear" x1="86.1177" y1="197.303" x2="131.69" y2="197.303" gradientUnits="userSpaceOnUse">
<stop offset="0.0082" stop-color="#F9E5DA"/>
<stop offset="0.334" stop-color="#F8E1D4"/>
<stop offset="0.5291" stop-color="#F4DCCE"/>
<stop offset="0.6899" stop-color="#F2D5C1"/>
<stop offset="0.8318" stop-color="#F0CEB8"/>
<stop offset="0.9602" stop-color="#F3C7AB"/>
<stop offset="1" stop-color="#F4C09F"/>
</linearGradient>
<linearGradient id="paint30_linear" x1="86.1177" y1="206.903" x2="115.5" y2="206.903" gradientUnits="userSpaceOnUse">
<stop offset="0.0082" stop-color="#F9E5DA"/>
<stop offset="0.334" stop-color="#F8E1D4"/>
<stop offset="0.5291" stop-color="#F4DCCE"/>
<stop offset="0.6899" stop-color="#F2D5C1"/>
<stop offset="0.8318" stop-color="#F0CEB8"/>
<stop offset="0.9602" stop-color="#F3C7AB"/>
<stop offset="1" stop-color="#F4C09F"/>
</linearGradient>
<linearGradient id="paint31_linear" x1="102.308" y1="178.103" x2="147.281" y2="178.103" gradientUnits="userSpaceOnUse">
<stop offset="0.0082" stop-color="#F9E5DA"/>
<stop offset="0.334" stop-color="#F8E1D4"/>
<stop offset="0.5291" stop-color="#F4DCCE"/>
<stop offset="0.6899" stop-color="#F2D5C1"/>
<stop offset="0.8318" stop-color="#F0CEB8"/>
<stop offset="0.9602" stop-color="#F3C7AB"/>
<stop offset="1" stop-color="#F4C09F"/>
</linearGradient>
<clipPath id="clip0">
<rect width="294" height="270" fill="white"/>
</clipPath>
</defs>
</svg>
