<svg width="294" height="270" viewBox="0 0 294 270" fill="none" xmlns="http://www.w3.org/2000/svg">
<path d="M147.595 193.328L250.745 179.573L232.693 173.556L129.544 187.311L147.595 193.328Z" fill="url(#paint0_linear)"/>
<path d="M129.544 170.115L232.693 157.22L213.783 150.648L111.493 164.097L129.544 170.115Z" fill="url(#paint1_linear)"/>
<path d="M129.544 187.31L232.693 173.555V157.221L129.544 170.116V187.31Z" fill="url(#paint2_linear)"/>
<path d="M111.492 146.905L213.782 134.01L194.012 126.907L91.7222 140.028L111.492 146.905Z" fill="url(#paint3_linear)"/>
<path d="M111.493 164.099L213.783 150.65V134.01L111.493 146.905V164.099Z" fill="url(#paint4_linear)"/>
<path d="M147.595 210.521L250.745 195.906V179.572L147.595 193.327V210.521Z" fill="url(#paint5_linear)"/>
<path d="M91.7222 140.027L194.012 126.907V109.938L91.7222 123.693V140.027Z" fill="url(#paint6_linear)"/>
<path d="M167.366 232.012L267.936 219.117V201.923L167.366 215.678V232.012Z" fill="url(#paint7_linear)"/>
<path d="M184.557 238.891L286.847 225.136L267.936 219.118L167.366 232.013L184.557 238.891Z" fill="url(#paint8_linear)"/>
<path d="M167.366 215.679L267.936 201.924L250.745 195.906L147.595 210.521L167.366 215.679Z" fill="url(#paint9_linear)"/>
<path d="M36.7096 54.9173L138.14 42.022L120.089 35.1445L17.7988 48.8995L36.7096 54.9173Z" fill="url(#paint10_linear)"/>
<path d="M120.089 18.8111L101.179 11.9336L0.60791 26.5483L17.7995 32.5661L120.089 18.8111Z" fill="url(#paint11_linear)"/>
<path d="M91.7223 123.692L194.012 109.937L176.821 104.411L72.2271 118.534L91.7223 123.692Z" fill="url(#paint12_linear)"/>
<path d="M36.7095 72.1115L138.14 58.3565V42.0225L36.7095 54.9177V72.1115Z" fill="url(#paint13_linear)"/>
<path d="M167.365 232.014V215.68L147.595 210.522V193.328L129.544 187.31V170.116L111.493 164.099V146.905L91.7223 140.027V123.693L72.227 118.535V101.341L55.3759 95.3237L55.62 78.13L36.7092 72.1122V54.9185L17.7985 48.9007V32.5666L0.606934 26.5488V59.2169L7.48356 61.7959L164.786 255.225L184.557 261.243V238.891L167.365 232.014Z" fill="url(#paint14_linear)"/>
<path d="M184.557 238.891V261.243L286.847 246.628V225.136L184.557 238.891Z" fill="url(#paint15_linear)"/>
<path d="M17.7988 48.9005L120.089 35.1455V18.8115L17.7988 32.5665V48.9005Z" fill="url(#paint16_linear)"/>
<path d="M55.6202 78.1302L157.051 65.0492L138.14 58.3574L36.7095 72.1124L55.6202 78.1302Z" fill="url(#paint17_linear)"/>
<path d="M72.2271 118.534L176.821 104.411V87.585L72.2271 101.34V118.534Z" fill="url(#paint18_linear)"/>
<path d="M72.2272 101.341L176.821 87.5862L157.05 81.5684L55.376 95.3233L72.2272 101.341Z" fill="url(#paint19_linear)"/>
<path d="M55.376 95.3235L157.05 81.5686V65.0488L55.6201 78.1298L55.376 95.3235Z" fill="url(#paint20_linear)"/>
<path d="M5.60791 21.5482V54.2163L12.4845 56.7953L169.787 250.225L189.558 256.242M5.60791 21.5482L106.179 6.93359L125.089 13.8111M5.60791 21.5482L22.7995 27.566M189.558 256.242L291.848 241.628V220.136M189.558 256.242V233.891M291.848 220.136L272.937 214.118M291.848 220.136L189.558 233.891M272.937 214.118V196.924M272.937 214.118L172.366 227.013M272.937 196.924L255.745 190.906M272.937 196.924L172.366 210.679M255.745 190.906V174.572M255.745 190.906L152.596 205.521M255.745 174.572L237.694 168.554M255.745 174.572L152.596 188.327M237.694 168.554V152.22M237.694 168.554L134.545 182.309M237.694 152.22L218.783 145.649M237.694 152.22L134.545 165.116M218.783 145.649V129.009M218.783 145.649L116.494 159.098M218.783 129.009L199.013 121.905M218.783 129.009L116.494 141.904M199.013 121.905V104.938M199.013 121.905L96.7232 135.027M199.013 104.938L181.822 99.4118M199.013 104.938L96.7232 118.693M181.822 99.4118V82.5859M181.822 99.4118L77.2267 113.535M181.822 82.5859L162.051 76.5681M181.822 82.5859L77.2267 96.3409M162.051 76.5681V60.048M162.051 76.5681L60.3759 90.3231M162.051 60.048L143.14 53.3566M162.051 60.048L60.6209 73.1294M143.14 53.3566V37.0226M143.14 53.3566L41.7102 67.1116M143.14 37.0226L125.089 30.1451M143.14 37.0226L41.7102 49.9179M125.089 30.1451V13.8111M125.089 30.1451L22.7995 43.9001M125.089 13.8111L22.7995 27.566M22.7995 27.566V43.9001M22.7995 43.9001L41.7102 49.9179M41.7102 49.9179V67.1116M41.7102 67.1116L60.6209 73.1294M60.6209 73.1294L60.3759 90.3231M60.3759 90.3231L77.2267 96.3409M77.2267 96.3409V113.535M77.2267 113.535L96.7232 118.693M96.7232 118.693V135.027M96.7232 135.027L116.494 141.904M116.494 141.904V159.098M116.494 159.098L134.545 165.116M134.545 165.116V182.309M134.545 182.309L152.596 188.327M152.596 188.327V205.521M152.596 205.521L172.366 210.679M172.366 210.679V227.013M172.366 227.013L189.558 233.891" stroke="#202020" stroke-width="1.5"/>
<defs>
<linearGradient id="paint0_linear" x1="232.908" y1="183.442" x2="111.707" y2="183.442" gradientUnits="userSpaceOnUse">
<stop stop-color="#F9E5DA"/>
<stop offset="0.3285" stop-color="#F8E1D4"/>
<stop offset="0.5252" stop-color="#F4DCCE"/>
<stop offset="0.6873" stop-color="#F2D5C1"/>
<stop offset="0.8305" stop-color="#F0CEB8"/>
<stop offset="0.9599" stop-color="#F3C7AB"/>
<stop offset="1" stop-color="#F4C09F"/>
</linearGradient>
<linearGradient id="paint1_linear" x1="215.502" y1="160.382" x2="94.3018" y2="160.382" gradientUnits="userSpaceOnUse">
<stop stop-color="#F2E0D5"/>
<stop offset="0.3285" stop-color="#F4DFD3"/>
<stop offset="0.5252" stop-color="#F4DCCE"/>
<stop offset="0.6873" stop-color="#F2D5C1"/>
<stop offset="0.8305" stop-color="#F0CEB8"/>
<stop offset="0.9599" stop-color="#F1C1A3"/>
<stop offset="1" stop-color="#F3BD9A"/>
</linearGradient>
<linearGradient id="paint2_linear" x1="181.119" y1="172.265" x2="181.119" y2="146.612" gradientUnits="userSpaceOnUse">
<stop stop-color="#F9E5DA"/>
<stop offset="0.3285" stop-color="#F8E1D4"/>
<stop offset="0.5252" stop-color="#F4DCCE"/>
<stop offset="0.6873" stop-color="#F2D5C1"/>
<stop offset="0.8305" stop-color="#F0CEB8"/>
<stop offset="0.9599" stop-color="#F3C7AB"/>
<stop offset="1" stop-color="#F4C09F"/>
</linearGradient>
<linearGradient id="paint3_linear" x1="197.021" y1="136.906" x2="74.9619" y2="136.906" gradientUnits="userSpaceOnUse">
<stop stop-color="#F9E5DA"/>
<stop offset="0.3285" stop-color="#F8E1D4"/>
<stop offset="0.5252" stop-color="#F4DCCE"/>
<stop offset="0.6873" stop-color="#F2D5C1"/>
<stop offset="0.8305" stop-color="#F0CEB8"/>
<stop offset="0.9599" stop-color="#F3C7AB"/>
<stop offset="1" stop-color="#F4C09F"/>
</linearGradient>
<linearGradient id="paint4_linear" x1="162.617" y1="148.048" x2="162.031" y2="118.286" gradientUnits="userSpaceOnUse">
<stop stop-color="#F9E5DA"/>
<stop offset="0.3285" stop-color="#F8E1D4"/>
<stop offset="0.5252" stop-color="#F4DCCE"/>
<stop offset="0.6873" stop-color="#F2D5C1"/>
<stop offset="0.8305" stop-color="#F0CEB8"/>
<stop offset="0.9599" stop-color="#F3C7AB"/>
<stop offset="1" stop-color="#F4C09F"/>
</linearGradient>
<linearGradient id="paint5_linear" x1="198.931" y1="189.724" x2="197.761" y2="163.655" gradientUnits="userSpaceOnUse">
<stop stop-color="#F9E5DA"/>
<stop offset="0.3285" stop-color="#F8E1D4"/>
<stop offset="0.5252" stop-color="#F4DCCE"/>
<stop offset="0.6873" stop-color="#F2D5C1"/>
<stop offset="0.8305" stop-color="#F0CEB8"/>
<stop offset="0.9599" stop-color="#F3C7AB"/>
<stop offset="1" stop-color="#F4C09F"/>
</linearGradient>
<linearGradient id="paint6_linear" x1="142.86" y1="124.378" x2="142.563" y2="99.1572" gradientUnits="userSpaceOnUse">
<stop stop-color="#F9E5DA"/>
<stop offset="0.3285" stop-color="#F8E1D4"/>
<stop offset="0.5252" stop-color="#F4DCCE"/>
<stop offset="0.6873" stop-color="#F2D5C1"/>
<stop offset="0.8305" stop-color="#F0CEB8"/>
<stop offset="0.9599" stop-color="#F3C7AB"/>
<stop offset="1" stop-color="#F4C09F"/>
</linearGradient>
<linearGradient id="paint7_linear" x1="217.481" y1="213.784" x2="215.759" y2="181.546" gradientUnits="userSpaceOnUse">
<stop stop-color="#F9E5DA"/>
<stop offset="0.3285" stop-color="#F8E1D4"/>
<stop offset="0.5252" stop-color="#F4DCCE"/>
<stop offset="0.6873" stop-color="#F2D5C1"/>
<stop offset="0.8305" stop-color="#F0CEB8"/>
<stop offset="0.9599" stop-color="#F3C7AB"/>
<stop offset="1" stop-color="#F4C09F"/>
</linearGradient>
<linearGradient id="paint8_linear" x1="264.498" y1="229.005" x2="145.017" y2="229.005" gradientUnits="userSpaceOnUse">
<stop stop-color="#F9E5DA"/>
<stop offset="0.3285" stop-color="#F8E1D4"/>
<stop offset="0.53125" stop-color="#F4DCCE"/>
<stop offset="0.6873" stop-color="#F2D5C1"/>
<stop offset="0.8305" stop-color="#F0CEB8"/>
<stop offset="0.9599" stop-color="#F3C7AB"/>
<stop offset="1" stop-color="#F4C09F"/>
</linearGradient>
<linearGradient id="paint9_linear" x1="270.108" y1="205.244" x2="126.989" y2="206.533" gradientUnits="userSpaceOnUse">
<stop stop-color="#F9E5DA"/>
<stop offset="0.3285" stop-color="#F8E1D4"/>
<stop offset="0.5252" stop-color="#F4DCCE"/>
<stop offset="0.6873" stop-color="#F2D5C1"/>
<stop offset="0.8305" stop-color="#F0CEB8"/>
<stop offset="0.9599" stop-color="#F3C7AB"/>
<stop offset="1" stop-color="#F4C09F"/>
</linearGradient>
<linearGradient id="paint10_linear" x1="129.545" y1="45.0309" x2="9.20459" y2="45.0309" gradientUnits="userSpaceOnUse">
<stop stop-color="#F9E5DA"/>
<stop offset="0.3285" stop-color="#F8E1D4"/>
<stop offset="0.5252" stop-color="#F4DCCE"/>
<stop offset="0.6873" stop-color="#F2D5C1"/>
<stop offset="0.8305" stop-color="#F0CEB8"/>
<stop offset="0.9599" stop-color="#F3C7AB"/>
<stop offset="1" stop-color="#F4C09F"/>
</linearGradient>
<linearGradient id="paint11_linear" x1="108.271" y1="22.2498" x2="-11.2097" y2="22.2498" gradientUnits="userSpaceOnUse">
<stop stop-color="#F9E5DA"/>
<stop offset="0.3285" stop-color="#F8E1D4"/>
<stop offset="0.5252" stop-color="#F4DCCE"/>
<stop offset="0.6873" stop-color="#F4DCCE"/>
<stop offset="0.8305" stop-color="#F0CEB8"/>
<stop offset="0.9599" stop-color="#F3C7AB"/>
<stop offset="1" stop-color="#B48D74"/>
<stop offset="1" stop-color="#F4C09F"/>
</linearGradient>
<linearGradient id="paint12_linear" x1="178.815" y1="114.052" x2="57.0302" y2="114.052" gradientUnits="userSpaceOnUse">
<stop stop-color="#F9E5DA"/>
<stop offset="0.3285" stop-color="#F8E1D4"/>
<stop offset="0.5252" stop-color="#F4DCCE"/>
<stop offset="0.6873" stop-color="#F2D5C1"/>
<stop offset="0.8305" stop-color="#F0CEB8"/>
<stop offset="0.9599" stop-color="#F3C7AB"/>
<stop offset="1" stop-color="#F4C09F"/>
</linearGradient>
<linearGradient id="paint13_linear" x1="87.4253" y1="57.067" x2="87.4253" y2="32.4311" gradientUnits="userSpaceOnUse">
<stop stop-color="#F9E5DA"/>
<stop offset="0.3285" stop-color="#F8E1D4"/>
<stop offset="0.5252" stop-color="#F4DCCE"/>
<stop offset="0.6873" stop-color="#F2D5C1"/>
<stop offset="0.8305" stop-color="#F0CEB8"/>
<stop offset="0.9599" stop-color="#F3C7AB"/>
<stop offset="1" stop-color="#F4C09F"/>
</linearGradient>
<linearGradient id="paint14_linear" x1="181.521" y1="255.932" x2="13.0967" y2="50.3286" gradientUnits="userSpaceOnUse">
<stop stop-color="#F9E5DA"/>
<stop offset="0.3285" stop-color="#F8E1D4"/>
<stop offset="0.5252" stop-color="#F4DCCE"/>
<stop offset="0.6873" stop-color="#F2D5C1"/>
<stop offset="0.8305" stop-color="#F0CEB8"/>
<stop offset="0.9599" stop-color="#F3C7AB"/>
<stop offset="1" stop-color="#F4C09F"/>
</linearGradient>
<linearGradient id="paint15_linear" x1="235.859" y1="252.142" x2="235.307" y2="220.843" gradientUnits="userSpaceOnUse">
<stop stop-color="#F9E5DA"/>
<stop offset="0.3285" stop-color="#F8E1D4"/>
<stop offset="0.5252" stop-color="#F4DCCE"/>
<stop offset="0.6873" stop-color="#F2D5C1"/>
<stop offset="0.8305" stop-color="#F0CEB8"/>
<stop offset="0.9599" stop-color="#F3C7AB"/>
<stop offset="1" stop-color="#F4C09F"/>
</linearGradient>
<linearGradient id="paint16_linear" x1="68.9445" y1="33.856" x2="68.9445" y2="12.4971" gradientUnits="userSpaceOnUse">
<stop stop-color="#F9E5DA"/>
<stop offset="0.3285" stop-color="#F8E1D4"/>
<stop offset="0.5252" stop-color="#F4DCCE"/>
<stop offset="0.6873" stop-color="#F2D5C1"/>
<stop offset="0.8305" stop-color="#F0CEB8"/>
<stop offset="0.9599" stop-color="#F3C7AB"/>
<stop offset="1" stop-color="#F4C09F"/>
</linearGradient>
<linearGradient id="paint17_linear" x1="140.934" y1="68.2438" x2="20.5931" y2="68.2438" gradientUnits="userSpaceOnUse">
<stop stop-color="#F9E5DA"/>
<stop offset="0.3285" stop-color="#F8E1D4"/>
<stop offset="0.5252" stop-color="#F4DCCE"/>
<stop offset="0.6873" stop-color="#F2D5C1"/>
<stop offset="0.8305" stop-color="#F0CEB8"/>
<stop offset="0.9599" stop-color="#F3C7AB"/>
<stop offset="1" stop-color="#F4C09F"/>
</linearGradient>
<linearGradient id="paint18_linear" x1="124.489" y1="101.714" x2="123.801" y2="74.9675" gradientUnits="userSpaceOnUse">
<stop stop-color="#F9E5DA"/>
<stop offset="0.3285" stop-color="#F8E1D4"/>
<stop offset="0.5252" stop-color="#F4DCCE"/>
<stop offset="0.6873" stop-color="#F2D5C1"/>
<stop offset="0.8305" stop-color="#F0CEB8"/>
<stop offset="0.9599" stop-color="#F3C7AB"/>
<stop offset="1" stop-color="#F4C09F"/>
</linearGradient>
<linearGradient id="paint19_linear" x1="161.103" y1="91.4548" x2="39.6591" y2="91.4548" gradientUnits="userSpaceOnUse">
<stop stop-color="#F9E5DA"/>
<stop offset="0.3285" stop-color="#F8E1D4"/>
<stop offset="0.5252" stop-color="#F4DCCE"/>
<stop offset="0.6873" stop-color="#F2D5C1"/>
<stop offset="0.8305" stop-color="#F0CEB8"/>
<stop offset="0.9599" stop-color="#F3C7AB"/>
<stop offset="1" stop-color="#F4C09F"/>
</linearGradient>
<linearGradient id="paint20_linear" x1="106.193" y1="79.2187" x2="105.759" y2="56.3636" gradientUnits="userSpaceOnUse">
<stop stop-color="#F9E5DA"/>
<stop offset="0.0001" stop-color="#F9E5DA"/>
<stop offset="0.3285" stop-color="#F8E1D4"/>
<stop offset="0.5252" stop-color="#F4DCCE"/>
<stop offset="0.6873" stop-color="#F2D5C1"/>
<stop offset="0.8305" stop-color="#F0CEB8"/>
<stop offset="0.9599" stop-color="#F3C7AB"/>
<stop offset="1" stop-color="#F4C09F"/>
</linearGradient>
</defs>
</svg>
