<svg width="60" height="60" viewBox="0 0 60 60" fill="none" xmlns="http://www.w3.org/2000/svg">
<path fill-rule="evenodd" clip-rule="evenodd" d="M18.9998 1C17.343 1 15.9998 2.34314 15.9998 3.99999L15.9998 4.24651C8.72745 6.41968 4.77327 10.2795 2.76735 15.4307C0.741463 20.6333 0.751717 27.0535 1.00006 34.0178L0.999898 36.9999C0.999898 38.6569 2.34304 40 3.9999 40H4.9999V49C4.9999 52.0681 7.4611 54.5766 10.8248 56.2584C14.2482 57.9701 18.9078 59 23.9999 59C30.6024 59 36.5395 57.2647 39.9547 54.5H40.0584C40.4888 54.5 40.8709 54.7754 41.0071 55.1838L41.5954 56.9487C42.0037 58.1737 43.1501 59 44.4414 59H55.9999C57.6567 59 58.9999 57.6569 58.9999 56C58.9999 54.3431 57.6567 53 55.9999 53H48.4999C48.2238 53 47.9999 52.7761 47.9999 52.5C47.9999 52.2239 48.2238 52 48.4999 52H52.2499C54.0448 52 55.4999 50.5449 55.4999 48.75C55.4999 46.9551 54.0448 45.5 52.2499 45.5H43.6977C43.1454 45.5 42.6977 45.0523 42.6977 44.5V41.1925L46.8424 37.0477L47.9562 38.1987L48.6631 38.9292L49.3819 38.2104L50.3149 37.2774C52.2675 35.3248 52.2675 32.1591 50.315 30.2064L46.8874 26.7787L54.207 19.4591L57.345 16.3211C59.0498 14.6162 59.0498 11.8521 57.345 10.1472C55.6401 8.44229 52.8759 8.44229 51.171 10.1472L48.0253 13.2929L44.8565 16.4617C43.0812 13.0821 41.2629 10.3734 39.0964 8.33515C36.8388 6.21129 34.2378 4.84768 30.9998 4.17071V4C30.9998 2.34315 29.6567 1 27.9998 1H25.9998H20.9998H18.9998ZM4.63104 16.1565C6.334 11.7832 9.61888 8.37664 16.0182 6.3339C16.1843 7.83361 17.4558 9 18.9998 9H20.9998H25.9998H27.9998C29.5837 9 30.8809 7.77258 30.9921 6.21704C33.6968 6.84701 35.8424 8.01984 37.726 9.79186C39.7741 11.7187 41.5482 14.3869 43.3731 17.9451L40.7135 20.6047L38.2968 18.1882C36.3441 16.2356 33.1784 16.2357 31.2258 18.1883L30.2928 19.1213L29.5735 19.8405L30.2646 20.5084C28.3041 20.1635 26.2196 20 23.9999 20C18.9078 20 14.2482 21.0299 10.8248 22.7416C7.4611 24.4234 4.9999 26.9319 4.9999 30V31H3.9999C3.61821 31 3.25319 31.0713 2.91741 31.2012C2.7884 25.3502 3.02386 20.2838 4.63104 16.1565ZM45.4732 25.3644L42.1277 22.0189L45.2997 18.847L48.7336 15.4131L52.0845 18.7531L45.4732 25.3644ZM53.4987 17.3389L50.1478 13.9988L52.5853 11.5614C53.5091 10.6376 55.0069 10.6376 55.9307 11.5614C56.8546 12.4852 56.8546 13.983 55.9307 14.9069L53.4987 17.3389ZM23.9999 22C26.3126 22 28.44 22.1857 30.4053 22.5684L29.0628 23.9109C27.7093 23.6677 25.5305 23.5 23.9999 23.5C18.8886 23.5 14.5771 24.6554 11.5083 26.4927C9.48042 27.7068 7.93339 29.2643 7.12538 31.022C7.04159 30.6839 6.9999 30.3427 6.9999 30C6.9999 28.0975 8.56813 26.106 11.7192 24.5305C14.8104 22.9848 19.1509 22 23.9999 22ZM23.9999 25.5C24.9871 25.5 26.2266 25.5748 27.2876 25.6861L21.7901 31.1836L21.083 31.8907L21.7901 32.5978L24.5608 35.3686L27.299 38.1067L30.0371 40.8448L33.0083 43.816L35.8341 46.6418L36.5412 47.349L37.2483 46.6418L40.6977 43.1925V44.5C40.6977 46.1569 42.0408 47.5 43.6977 47.5H52.2499C52.9403 47.5 53.4999 48.0596 53.4999 48.75C53.4999 49.4404 52.9403 50 52.2499 50H48.4999C47.1192 50 45.9999 51.1193 45.9999 52.5C45.9999 53.8807 47.1192 55 48.4999 55H55.9999C56.5522 55 56.9999 55.4477 56.9999 56C56.9999 56.5523 56.5522 57 55.9999 57H44.4414C44.011 57 43.6288 56.7246 43.4927 56.3162L42.9044 54.5513C42.4961 53.3263 41.3497 52.5 40.0584 52.5H39.597H39.5857H34.9999C33.343 52.5 31.9999 51.1569 31.9999 49.5V47C31.9999 45.3431 30.6568 44 28.9999 44C27.343 44 25.9999 45.3431 25.9999 47V48.5C25.9999 49.0523 25.5522 49.5 24.9999 49.5C24.4476 49.5 23.9999 49.0523 23.9999 48.5V43V41C23.9999 39.3292 22.653 38.0359 21.0571 37.946C15.1491 37.6129 10.6983 35.7857 8.5154 33.4444C8.67034 31.6338 9.98801 29.734 12.5357 28.2087C15.2316 26.5946 19.17 25.5 23.9999 25.5ZM34.9999 54.5H36.2191C33.1517 56.018 28.8475 57 23.9999 57C19.1509 57 14.8104 56.0152 11.7192 54.4695C8.56813 52.894 6.9999 50.9025 6.9999 49V39.765C7.34653 40.0074 7.71793 40.2394 8.10785 40.4606C9.32919 41.1534 10.7936 41.7747 12.3914 42.2954C15.2907 43.2402 18.6938 43.8748 21.9999 43.9834V48.5C21.9999 50.1569 23.343 51.5 24.9999 51.5C26.6568 51.5 27.9999 50.1569 27.9999 48.5V47C27.9999 46.4477 28.4476 46 28.9999 46C29.5522 46 29.9999 46.4477 29.9999 47V49.5C29.9999 52.2614 32.2385 54.5 34.9999 54.5ZM9.09465 38.721C8.15554 38.1883 7.45449 37.6492 6.9999 37.1419V34.7513C9.6723 37.6658 14.7627 39.5943 20.9446 39.9428C21.5543 39.9772 21.9999 40.4617 21.9999 41V41.9823C18.9143 41.874 15.7234 41.2777 13.0111 40.3938C11.5092 39.9044 10.1737 39.3331 9.09465 38.721ZM3.9999 33H4.9999V37.5V38H3.9999C3.44761 38 2.9999 37.5523 2.9999 37.0001L3.00006 34.0001C3.00006 33.4476 3.44772 33 3.9999 33ZM30.095 25.7071L32.8101 22.992L45.4399 35.6218L40.9906 40.0712L36.5412 44.5205L35.1328 43.1121L42.1512 36.1575C42.5435 35.7687 42.5464 35.1356 42.1576 34.7433C41.7689 34.351 41.1357 34.3481 40.7434 34.7368L33.7186 41.6979L32.1616 40.141L39.18 33.1863C39.5723 32.7976 39.5752 32.1644 39.1865 31.7721C38.7977 31.3798 38.1646 31.3769 37.7723 31.7657L30.7474 38.7267L29.4235 37.4028L36.4419 30.4482C36.8342 30.0595 36.8371 29.4263 36.4483 29.034C36.0596 28.6417 35.4264 28.6388 35.0341 29.0276L28.0093 35.9886L26.6854 34.6647L33.7038 27.7101C34.0961 27.3213 34.0989 26.6882 33.7102 26.2959C33.3215 25.9036 32.6883 25.9007 32.296 26.2894L25.2712 33.2505L23.9114 31.8907L30.095 25.7071ZM17.9998 4C17.9998 3.44771 18.4476 3 18.9998 3H19.9998V7H18.9998C18.4476 7 17.9998 6.55229 17.9998 6L17.9998 5L17.9998 4ZM21.9998 7V3H24.9998V7H21.9998ZM26.9998 7V3H27.9998C28.5521 3 28.9998 3.44772 28.9998 4V5V6C28.9998 6.55228 28.5521 7 27.9998 7H26.9998ZM32.64 19.6025C33.8116 18.4309 35.711 18.4309 36.8826 19.6024L40.0064 22.7261L44.7661 27.4858L48.9007 31.6206C50.0723 32.7922 50.0722 34.6916 48.9007 35.8632L48.6865 36.0774L47.5727 34.9264L47.567 34.9205L47.5612 34.9147L33.5172 20.8707L33.5112 20.8647L33.505 20.8587L32.4263 19.8162L32.64 19.6025ZM19.2493 29.4684C19.7841 29.3307 20.106 28.7854 19.9683 28.2506C19.8306 27.7158 19.2853 27.3939 18.7505 27.5316C15.6262 28.3362 13.4847 29.101 11.2928 31.2929C10.9023 31.6834 10.9023 32.3166 11.2928 32.7071C11.6833 33.0976 12.3165 33.0976 12.707 32.7071C14.5151 30.899 16.2322 30.2454 19.2493 29.4684ZM10.4999 46C10.4999 45.4477 10.0522 45 9.4999 45C8.94761 45 8.4999 45.4477 8.4999 46V47.5C8.4999 50.7966 11.3059 52.8069 14.8743 53.9522C15.4002 54.1209 15.9633 53.8315 16.1321 53.3056C16.3008 52.7797 16.0114 52.2166 15.4855 52.0478C12.0614 50.9489 10.4999 49.3783 10.4999 47.5V46ZM23.4137 28.5C23.2278 28.686 22.9698 28.793 22.7068 28.793C22.4438 28.793 22.1858 28.686 21.9998 28.5C21.8137 28.314 21.7068 28.056 21.7068 27.793C21.7068 27.529 21.8138 27.272 21.9998 27.086C22.1858 26.899 22.4438 26.793 22.7068 26.793C22.9698 26.793 23.2278 26.899 23.4137 27.086C23.5998 27.272 23.7068 27.529 23.7068 27.793C23.7068 28.056 23.5997 28.314 23.4137 28.5ZM19.7068 54.707C19.5209 54.893 19.2629 55 18.9999 55C18.7369 55 18.4789 54.893 18.2929 54.707C18.1068 54.521 17.9999 54.263 17.9999 54C17.9999 53.736 18.1069 53.479 18.2929 53.293C18.4789 53.106 18.7369 53 18.9999 53C19.2629 53 19.5209 53.106 19.7068 53.293C19.8929 53.479 19.9999 53.736 19.9999 54C19.9999 54.263 19.8928 54.521 19.7068 54.707Z" fill="#202020"/>
</svg>
